<?xml version="1.0" encoding="utf-8"?>
<!-- Generator: Adobe Illustrator 18.1.1, SVG Export Plug-In . SVG Version: 6.00 Build 0)  -->
<svg version="1.1" id="图层_1" xmlns="http://www.w3.org/2000/svg" xmlns:xlink="http://www.w3.org/1999/xlink" x="0px" y="0px"
	 viewBox="0 0 568.8 795.3" enable-background="new 0 0 568.8 795.3" xml:space="preserve">
<polygon points="93.1,23.6 93.1,25.3 93.1,27.6 95.1,29.3 99.4,26.5 99.4,21.6 96.2,21.6 "/>
<polygon points="84.4,25.5 84.4,27.3 84.4,30.3 84.4,32.6 84.4,35 81.4,35 81.4,37.6 86.7,37.6 89.1,40.3 89.1,46.3 93.1,49 
	93.1,53.3 93.1,55 93.1,58 93.1,64.3 96.2,68.6 99.4,64.6 99.4,61.6 99.4,54.3 97.7,53 96.2,38.6 96.2,36 93.1,33.6 88.7,33 
	88.7,29.3 88.1,27.3 87.1,25.5 "/>
<polygon fill="none" points="96.2,73.3 96.2,77.3 99.4,78.6 101.7,78.6 101.7,73.3 "/>
<path d="M473.4,18l2-2l-1.3-6l-1.7,1.3v2l-1.3,3.7l-3-2v-3.3l-4.3-1.7l-1.3,2.7l-2.3,2.7l-2.7,1.7l1.3,4.7l1.3,3.8h-5l-3,8.2
	l-3.7,5.7l-2.7,3.3l2.3,1l1.7,3.4l-2.3,1.6l-2-3.7h-2l-2,4.3l4,4.7v2.7l-5-0.3l-3.3-2l-1,8l2,2V76l-3.7,5l-1.3,9.7l1.7,0.7l1.3,4.3
	V99l1,2.3l0.7,6v3.7l-2.7,3.3l-2,3.3v8.7l-2.7,1l-2.7-0.3h-1.7l2,4.3l0.3,4l-3,3.3l-2,5.7l-4.3,4h-3.3v-4l3-3.3l-2-2.7l-3-1l-1,4
	l-2,4.3l-2.7,1.7l-2-14l-0.3-6l3.7-3l2.7-1.3l1.3-3.3l1.7-2l0.3-10l2.3-3.7l2-4l-1.7-3.7l-2-1l0.7-7.3l-5-4.7l-11-10h-11.3l-1.3,2.7
	l-4.7-2.7h-17l-1,2.7h-2l-1-2.7h-9.3l-7-4.7h-2v-4l12,1l2.3-5l8.3-7.7l5.3-0.7l3-2l0.3-3.3h-11.7l-4.7,4.9l-3.3,0.7l-5.3,3.3l-5,3.7
	l-2.3,2.3l-1.3,3.3l-5.3-1.3l-5.3-2l-8.7,2l-4,2l-5.3-5h-3l-4.3-5l-3.7,0.3l-5.7-4.7l-12-0.3l-8.7-2.7l-5.3,1l-2.3,3h-7l-2.7,3.7
	l-8.7,0.3v3l-7,2l1,3l2.7,1.3l2.3-2.7l2.3-1l5.3,0.7l3.3,5.7h4l0.7-2.7l-4-3.3V59l7.3-0.3l1.3,5.3l-0.7,4.7l4.7,3l4,1.7h13.3l0.3-3
	l3.3-1.7l4-3.3l2-3l3-0.7h3.7l3.7,4.7l2,2.3h-4.3l-5.3,2l-2.7,2.7l-8.7,2.7h-3.3c0,0-2.5,1-2.3,1.3c0.3,0.3-5.8,1.3-5.8,1.3h-7
	L259.7,76l-11.7-2.7l-8-4.7c0,0-7.7-2.7-8.7-3s-8.7-1-8.7-1l-8-0.7l-5.3-9.3l-3.3-7.6h-3.7l-5.3-3.8l-9.7-1l-2.7,1l-0.3,3.8l5,1.9
	l7.3-1.9l2,4.6l3.7,2.7l3.3,6.3V64l-1.7,4.7h-6.3l-2,4.7h-5.3l-4.3-4.7h-20.3l-3.7,4.7h-7l-7,8.3V86l-4.3,5l-0.7,7.7l0.3,12l5.3,7h8
	l2.7,2.7l6,1.3l3.7,0.7l6.7-4.7h6.3l6.3-5l7.3-5.3l9-6.7l6.7-0.7l5.7-1l5.7-5l2.7-1.3l8.3,6.3l29-0.7l10-2l8.7-0.3l3-0.7l13.7,0.3
	l4.7,0.3l4.7,0.7l7.7,0.3l5,2.7l3.3-0.3l7.3-6.3l1-2l3.3,1.3l1.3,2l4.3,5.3l4.3,1l3-2l4.3,3l2,4.3l6.7,4l5.7,3l4.7,4.7h11.7l10,8
	l2.7-0.3l3,2.7l0.3,9.3l1.7,1.3l0.7,14l1.3,10.7l3.7,5l2.7,7l-5.7,3.7l4.3,3.7l1,7.7l1.7,1.7v5.7l-5.3-1.3l-10.3,18l-2.7,8.7l-1.7,6
	l-2,5.3l-3,8.7l-7,7l-14,18.3c0,0,0.3,3.3-5,5l-7.7,7.7l-8,6.7l-1,6l0.7,5.7l1.3,2.7l0.7,5l1.3,8l-1,6.3l1,7.3l1,2l-1.7,4.7l0.3,3.3
	l-6,10l-2,6.7l-11.7,13l-7,7.3l-3.3,0.3v3.7l-5,9.3l-4.3,6.3l-2.3,7.7l-2.7,5.3v2.3l-2.7,4.7l-0.3,5.3l-1.3,3.7l-0.3,5.3l-3.7,2.3
	l2,3.3v4.3l-3,1.3l-2-4v-10.7l2.7-3.7l1.7-6l1-6.3l2-2.3v-9.7l3.3-0.7l2-6.7l4.3-7.3l2.7-3.7l0.7-3.3l3.7-2.3l0.3-2l5-3.7l4.7-4.7
	l-0.7-2l4.7-1l0.3-4l4-1.7l0.7-2v-5l-1.3-2.7l-1.7-4.3l1-13l0.7-2.3l0.7-5.7l2-0.3v-6.7l1-7.3l0.7-6.7v-13c0,0-5.3,4-5.3,3
	s-6.3,0-6.3,0l-4.7,3.7l-5.3,4.3l-6.3,4l-2.7,2.3l-2.7,4v3.3l10.7,0.3l2.7-2.7l5-1.3v4.3l-2.3,1.3l0.3,10.7l-2.3,4.3l-5,1.7l-4-2
	l-4.3,1l-5.7,1.3l-4-2.3l-6-0.3l-4-4.3h-3.3l-4.3-4l-5,2.3l-5.7,3l-7,4l-3.3-1l-6-0.3v2l-14.3-0.7l-5.3,3.3l-3,2l-2.7-3.7l5-2v-6
	l-1.7-2.7l-1.3-3.7l-1.3-6.3l-2.3-5.3l2.7-3.7l7.3,3.7l5.7,4l2.3,1.7l2,2.3l7,1.3l1.7-4.3l-1.7-4l-0.7-4.7l-8.7-4.7l-8.7,1l-5.7-2.7
	l-12-7.3l-0.3,14.3l1,8.3l3,6l0.3,8l0.7,2.3l-2,2.7l-1.3,10l-2.3,9.3l-6.7-4l-0.3-6.3l3-3l-3-6.3l0.7-4.3l1.3-2l0.7-9.3l-3-0.3
	l3.7-24l-6.7-4.3l-19-13l-7.3-7.3h-2.3l-4-4l-3.7-3l-0.7-4.7l-2.7-2.7l-5.3-4.7l-0.3-3.3l-3-1.3c0,0-13-24.3-13-28.7l-4.3-5
	l-0.3-2.7l2.7-1.3l1.7-2.3l1-4l-2-2l1.7-4.3l2.7-2l0.3-4l-1.7-1.7V178l2.3-3.3l2.3-0.3l-2-2.7l4.3-4.7l-1.7-4v-2.3l3.3-1.7l1.3-2.7
	v-3.7l2-5l2.3-5.3V125l-5-4l-2.7,1v4l2.3,0.7l0.7,9.3l-0.7,5.7l-1.3,4.3l-4,2l-1.7,3.7v3l-4.3,2.7l-1.3-3.3l-0.7-4.7l2.7-2.7l3-0.7
	v-4l-1.3-2.3l1.7-2l-0.7-3.3l-1.7-2l-2.3,1l-1,4.7l-0.3,7.3h-2.3l-0.7-11V131l-3.7-4.7l-1.3-5l-2.7-0.3l-1.3-3.3l1.3-1.7l-4-4.7
	l-1.3-3.3l-4-4.7l-0.7-2.3l2.3-2l1.7,0.7l0.3,2.7l2,1.7l2.3,4.3l2.3,1l0.7,3.3l2.7,5l2.3,3.3l2.3,4.3h2.3l1-2.7l-5.7-11l-4-7l-4.3-5
	l-2.3-3l-3-3l-2.7-5.3l-5.3-5.3l-2.7-2l-0.7-7.7l-2.7-3l-1.3-3.3l-2.3-3.3l-1.7,1.7v3.3l1.7,2h1.7V76l-1.7,2.7l1.7,3.7l2,1.7l3,3
	l2.3,3l1.7,3.7l-2.7,2l-1.7-2v-2.3l-1.8-0.3l-2.2-1l-0.3-2l-3.7-0.7v-4L96.2,83v1.7l3.2,4.7l2.3,2l3.4,2.7v1.7h2.3l1.3,2l2,2l3.3,2
	v7h2.7l1.7,3.3h2v2.3h2v5l3.3,2l1.3,6.7l2.7,5.3v8.3h2.3V153h2v14.3h1.7v9.7h1.7l-1.7,9.7l-1,5.3l-0.7,3.7l-2.3,6l-1.3,4.7l2,3.3
	l1,3.7v3h-8.7l-6.3,6.3h-1.6v9l8.3,7h4.3l0.3,16h-2l0.7,14h-2.7l2,6.3h-2.3l0.7,24.7h-2l1,9.7l0.3,5h-2.7l-1,3l0.3,4h-2.3l-1,2
	l0.7,4h-4l-2.7,2.7v3.7h4.1l2.6-2.3l1.7-3l0.7,3.7l1,1.7v7.3l-1.7,6.3l-0.3,8.3h-1.7l-0.3,5.3l-0.3,20l-1.6,2.3v7.3l2.3,2l-0.3,6.3
	h-1.9v10.7l2.3,1.7l-0.7,7.3l-1.6,3.3v56l-1.8,2v14.7h1.8v46.7h1.6l0.3,10.3l1,3.7l0.7,7.3v6.3l2,5l0.3,18.7l2,5.7l1.3,6.3l1.3,11.3
	l2.7,14.7l3.3,13.7l8,14.7l-2,9.3l3.7,9.3v4h2.7v6l3.3,6l3.3,6v5l5.3,3.3v6.7l6,7.7l6.3,15.3l17,16l6.3,11l4.3,4.3h5l5,5.7h2l4.3,3
	h13.3l5.7-5l1.7-2.7l5.3-2.7l-3-3l-2,3l-5.3,1l-3,4.3l-8.3,0.7h-5.7l-2.7-2.7l3-4.7l1-6l7-8.3l17.7-19l1.3-14.7l2.7-3v-6.3l2-2V688
	l3-7.7v-6.7l4.7-6v-23.3l-2.3-2.7l-0.3-14.3l2.7-10v-10.7l-8.7-28.3V565l2.7-9l1-8.3v-10l2.3-2l2.7,0.7v5.7l4,4v6.7l6,4.7v4.7l3,5.7
	v3.3l2.7,6.3v63l-1.3,2.7v10.3l-2.3,4l1.7,12.7l-2.3,2.3l1,22l3.3,5.7v2l2.3,1.7v20l2.3,0.3v10.3l2.7,5.3l2,2v9.3l4,3l3,8l4.7,8
	l1.3-5.3l-3-3.3l-0.7-5.3l-4-4.3l-1.3-11.3l-3-3.3l-2.7-12l-3.3-5l0.7-5.3l0.3-9.7l-2.7-8.7l0.3-16l-2-4l-0.3-4.3l3-3l-2-11l2.3-2.7
	l-1-5l1.7-1l-0.7-10.7l1.7-1.7l-0.7-2.3l-0.3-3.7l1.3-2.3l-1-12.3l-1.3-5l2-1.3l-0.3-34l-1-4.3l-2-1.7l-0.7-4l2-0.7l5.7,3.3l3,0.3
	l4-4l0.5-1.7l2.8-5.7l2.7-5.7v-11.7l-1.7-4l-3.8-0.3v-15.3l2.5-0.7l-1-17.7l2-1l-0.7-4.7l2.7,0.3v20l-1.7,6.7l0.3,6l5.7,9v33l3,7.3
	v17.3l-1.3,4.3l-0.7,3.7l-0.3,3.7l-0.3,24.7l0.7,3.7l0.3,5.7l-1.7,2l-1,7.3l-3.3,6v9.3l-1,3.3l1.7,18.3l3.3,5.7v4.3l-3.3,4v14
	l7,12.3l2.3,6l1.7,2.7l1.7,8l4,7.7l6.7,5l2.7,7.3l5.7,8.7v2.3l-2.7,1.3l-5.3,3.7h-9.3l-9.7-7.7l-1.3-1.7h-3.7v4.7l7.3,4.7l3.3,3.7
	l8,1.7h6.7l4.3-3.7l6-4.7l7.7-1l7.7-9.3l7.7-8.7l2-4.3l1.7-3.3l4.7-4l6.3-6v-5.3l4.7-4.3l1.3-6l5.7-8.7l3.7-5.7l4-7.7l3-6.7l1.3-5
	l2.3-3v-7l3.3-2l1.3-7l2-3.7l3-2.7v-5.3l2.7-4.7l2-10l3-3.3l4.3-13.7v-7.3l3.3-5.7v-6.7l2.3-1.3v-16.7l2.3-2.7v-6l1.7-0.3V557l2-1
	v-3l1.7-0.7l-1.3-4l1.3-2.3v-36.3l3.3-0.7l-1.7-5l1.7-1.7V498l2-3.7v-33.7l1.3-2.7v-17.3h2l-1.3-3.3l-0.3-29l-0.3-4.3l2-1v-24.7
	l-1.7-1v-18.7l-1-4.3l-0.7-8.3l-0.3-6.7l-1-7.7l2.3-2.7l2.3,3.7l4.3,6v3.7l8-0.7l2.3,0.3l2,0.3v2.7l-9,3.7l-1.7,2.3l1,4h2l3.7,0.3
	l4-1l3.3-2.7V342h-1.7l-1.3-2.3l-1-2.7l-7-0.3l-5.7-10.3l-8-13.3l-0.7-11.7l-0.7-7.7l-1.7-9l-0.3-16.3l-1.3-15l-3.7-8v-5.7l3.7-1.7
	l4.3,0.7l3.7-5.3l-0.3-7.7h-3.3v3.7l-0.3,4.3h-7l-2.7-4.7h-3l-0.7-2.7l2-1.7l7-1h2.7l-3-2.3h-3.7l-3.7-2l-0.7-5l2.3-1.3l-2-6.3
	l-0.3-4.7l0.3-20.7l-1.7-2.7l1-1.7l2-8l3-6.3l4.7-13l3.3-5l2-4.3l3.3-4.7l3.3-5.7l2.7-12.3h1.7l-0.3-6.3l1.3-2.7V93l4-6v-8.3h-1.7
	l0.3-5.3h2v-4.7l-1.3-5l1.3-4.7h2l1.7-4l-0.3-4.7l3.3-3.3v-4.4l1.7-5.3l5.3-6.3l3.3-5.5V18h3.7l1.3,3.7h-2V24l3.3,1.5h3.7l1.7-1.8
	l-2-2V18z M280.9,60.6l-2,1.6l2,1.9v4.5h-5l-1.8-2l-1.3-2.5v-1.8l1.3-4.5v-2l3.4-0.8l1.4-1l3.3,1.8L280.9,60.6z M297.2,61.4
	l-1.5,2.3l-3.3,2l-2,3l-4.6-2v-5.3h1.1l0.8-2.3h2.5l1.8-2.3l5.3,1.1V61.4z M153.7,94.6v-3.8h1.5l1.5,1.9L153.7,94.6z M161.2,90.9
	v-5.5h2.3v1.3l2.3,1v2.1l-1.5,1.2v1.9h-1.8L161.2,90.9z M168.4,97.9l-2.8,0.8l-2.3-1.5l2.5-1.5h2.5V97.9z M177.4,111.1l-1.8,1.8
	l-1.3-4.8v-1.8l-4-0.5v-1.5h3l3.4,1l2.4,4.3L177.4,111.1z M204.2,81.4v4h-1.8l-2.3-2.8l-5,0.3l-1,2.5l4,3.7h-4.3l-3.5,5.6h-5.8
	l-2.3,4h-4l-2.5-4h-2.5l-1.3-1.9l1.8-3.7l-1.8-1.9l-1.5-3.3l3-2.3h2.3l-1.5-2.8h-4.8l-1.3-1.5h1.3v-2.5l-1.3-0.8l5-1.3l0.5,2h9.3
	l0.8,1.8l3.5-0.3l3.3,2.8l4.8-0.3l6.3-4l2.5,2l-1.3,1.8l-0.8,2.8H204.2z M221.2,72.9h-2.3v1.3h-4l-1.8-1.3v-2h11l3.3,2.6L221.2,72.9
	z M251.9,85.4h-2l-1.3-1.8l-4.8-2.5h8V85.4z M284.4,87.1l-5.5,2h-3.3l-1,1.8l-1.8-1.8l-3-1.4l-5.3-0.5v1.9h-5.3l-4.8-2.2v-3.6h5.5
	l0.3,2.1h8.3l4.4,1.7h4.5l4.6-2.7l8,1l1.3,2.8L284.4,87.1z M300.4,83.3l-1.8-2.1h-1.5l3.9-2.8l2.4,3.8L300.4,83.3z M322.2,74.1v-1.6
	l-4.3,0.4l-1,1.3h-2.3v-3.3h8l3,2L322.2,74.1z M337.9,74.1h-2l-2.3-3.3h4.3V74.1z M361.9,81.1l-2.8,0.9l-4,1.2l2.3-2.4l1.1-1.4h3.4
	V81.1z M379.4,102.6h-2.8v-4l2.8,2V102.6z M396.7,120.6v-3l2,1.5L396.7,120.6z M400.7,102.6l-3.3,1.8l-9.3-5.8l-5.5,1v-3h2.8l1.8-2
	l2.5-3.8v-9.8l0.5-1.5l1.8-1.3h3.5l3.8,1.5l5.5,5.5l5,5.5l1,3.8v9.8h-5l-2.5-1.5L400.7,102.6z M403.7,112.9h3.5v2.4l-1.3,1.1v1.3
	h-2.3V112.9z M325.9,311.4h1.8l1.8,6.5h-2.2l-1.3-1V311.4z M327.7,350.9v3.8l-2.8-1.5v-2.3H327.7z M324.9,334.6l-2.5,2v-5l2.5-1.6
	V334.6z M320.9,301.4h-3.8v-3.8h2.6l2.6,1.9L320.9,301.4z M321.2,341.6h2.5l1.3,5.5l-3.8,1V341.6z M241.4,381.4h1.8v3.5l-1.8,1.4
	V381.4z M244.2,448.4l-1.3,2.8v4.5l-2.3,1.5l-0.9,3l-0.9-3.8v-9.5l1.8-1.8L244.2,448.4z M236.4,373.9h3l-1,4.5l-2,1.3V373.9z
	 M223.4,358.3h2.5l0.3,4.6h4v3.1l3.3,2.1v2.8l-3.3-1.5l-6.8-8.3V358.3z M219.2,354.6l2.5-1.5c0,0,0,0,0.5,3l-3,1.6V354.6z
	 M204.2,334.6v3c0,0-2.3-1-2.5-3l-0.8-1.8L204.2,334.6z M200.9,291.4h1.6v1.8h-1.6V291.4z M196.2,285.6l2.4,1.1l-1.1,2.6h-1.3V285.6
	z M196.2,327.1l2.4,1.1l2.4,3.4l-3,1.3l-1.8-1.3V327.1z M155.4,259.6l1.2,2.3h-2.9L155.4,259.6z M149.7,243.8l2.7,3.7v3.7l-2.7-1
	V243.8z M246.1,607l-1.7,8.7l-1.3,8l0.7,13c0,0-3.3,3.3-3.7,2.3c-0.3-1-10-9-10-9l-6-6l1.7-9.7l-9-6.3h-7.3l-4.7-6l-9.3-17.7
	l-5.3-1.3l-6.2-8.3l-4.5-6l-1.7-8l-5.3-17l-2-4l-1.3-18l-5.7-3.3l-0.3,4l1.7,1l1.7,14l-0.7,9.7l2.7-2l1.3,6.7l1,6.3l3.7,4l1,10
	l10,11.3l5,3.3l2,5l3.3,2.7l2.3,6.7l2,2.3l1.3,5.7l7.7,5h8l2.3,7.3l-3,2.7l12.7,12.3l8.7,3.7l8.3,10l1.3,4.7v10l-3.3,5v6.3l-2.7,5.3
	l-3.7-3.7l-5.3-8.7l-11.7-12.3l-4.3-7.7l-3,2.3l-0.7,5.3l13.7,14.3l2.7,1.7l6.7,10l3.3,9.3l0.3,14.3l-1.7,8.7l-4.7,3l-8-9l-11-14
	l-3,3.3l3,5.7l19,17.7l1.7,4.3l-4.7,7.7l-10,6.7l-3-3.8l-4.7-10.5l-21.3-15.7l-1.3,7.7l5.7,3.7l5,0.3l7,7.3l3,2l2,8.3l5.7,2.7l-5,8
	v4.7l-5.3,8.7h-5L190.4,753l-0.7-10.3l-1.7-7.7l-3.5-6l-1.5-11l-3-7.7l-1.7-7.3l-3.3-1.3l-1.7-4.3l-7.7-7.3l0.2,2.2l4.5,11.5
	l7.5,14.3v9.2l6,12.5h3.5v5.5l-10.8-8.7l-8.3-14.5l-2.5-1.7V713l-3.5-3.3v-5.3l-5.3-5.3v-3l-3.7-3.8v-6.5l-5-6v-4l-3.3-4.3v-7h2.7
	l0.3,5l3.7,3.3l2.3,5l4,4l3.3,3.3l0.3,5l4.5-3v-3.3l10.5,4.7l5.7,8l5,5.3v5.3l3.7,1v-10.7l-7.3-7.7l-7.3-14l-2.3-9l-8-11.3l-3-5
	l-1.3,4l1.3,7l5,8.7l2.3,5l-2.3,1.7l-8-1.7l-19-32l-2.3-9.7l-2.3-9h3l13.3,5l6,6l2.7,2.7v7.3l2.3,2.7l2-2.7l-0.3-9.7l-3.3-8
	l-1.3-7.7v-4.7l-4-10.3l-4.3-9.3l-3.3-7l-1.7-11.7l-3-5.3l-1.3-7h-3v9l3.7,5l-1,10l6.7,14l2.3,3l0.7,7.3l4.3,5.3l0.7,6.3l-4.3-0.3
	l-7.3-4l-10.7-6l-2.7-5.3l-4.7-28.3l-1.7-28l-2-10.3v-22l-2.3-1.7v-17.3h2l-0.3-7h-1.7l1.7-67.7l-1.7-21V390l2.7-27.7l3.3-11.7
	l-0.7-31.3l5-5.7v-40l3-7.3l0.7-9.5h3.3l-0.3-6.9l-3-1.3l-1-13l-3.3-3.5h-4l-4-4v-3l8.3-5.8h7l1,11.6l2,17.6l2.3,5v3.3l-2.3,5v2.5
	l4.9,2l1.5,5.8l1.5,3.5l8.7,13.7l1.7,5l9,5.3l22,28.7v5.7l6.7,7.7l13,14.7l6,8.3l8,9.3l9.7,10v5l-6,5l4.3,3.7l3.7-3.7l2,8.7l3,5
	c0,0-2.6,3.1-3,3.8c0,0.1,0,0.2,0,0.2s0-0.1,0-0.2c-0.1-0.7-1.7-3.8-1.7-3.8l-6.7-5.7l-9-4.3h-3.7l-4-4.7l-2.3-8.3l-7.3-4.7
	l-6.3,1.3l-2,6.7v6.3l0.7,6l-2.7,9.3l-4,3.7l-3.3-7.3l-4.5-3.3v-13l-1.5-12.3l3.3,1l3.7,4.7l2.3,8.7l2.7-0.3l-0.7-6.7l-1.3-4.7
	l16.3-10.7l7.3,10.3l6.7,1.3l-2.7-5.7l-27.3-31.5l-5-12.5L157.7,295l-1.3-4.7l-4.7,1.7l-2-2l-0.7-10.7l-6-9.7l-3.7,2.5l-1.3,3.8
	l-1.3,4.3l0.7,5.3l6,1.1l1.7,10.9h2l1.3,10l4.3,3.7v3.7l-4.3,2l0.3,3.7l4.3,3.7l2,9.7l3.3,17.7l2.3,9.3l-16.3,34.7l-1,8.7l0.7,13.3
	l2.7,0.7l1.3-16l3.7-8l4.7-12.7l0.7-6.3l5.7-1.3v-3.7h3l0.3,16.7l2.7,4l4,6.7l2,3.3l-9,8.7l-1,23.7v26l-4,1.7l0.7-11.3l-4-2.3
	l-2-12.3h-3l0.7,12l4,4l-0.3,27.3l-3.7,8.7l1,7.3l2.7,1l2,12.7l3.3,4.3l3,3.7l0.7-7.7l-2.3-6l6.3,0.3l7.3,6.3l2.7,9.7l1.8-0.3l4.8,6
	l3,9l1.7-5.7l-1-4l-6.7-7.7l3-11l5.3-6l5.7-5l7,11.3l10.7,13.3l6.7,3.3h4.3v-4.3l-6.7-2.3l-10-12.7l-8.3-13.7l-2.3-3.3L187.1,501
	l-5.5-4.3l-3.2,1.7l0.7,6.7l-3.3,0.3l-5-4.7l-8.7-6l-2-6l5.7-12l4-14.3v-30l8-23l3.8,0.3l9.5,15.7v4.7l4,2.7l2.7,6.7l14.7,14.7
	l1.3,7.7l19.3,37.7l1.3,5.7l4,3.3l5,14.7v6.3l-3.3,0.3l-4.7-7l-5.7-0.3v4.3l8.3,5l3.3,6l-3,23l0.7,16l-0.7,7l-4.7,4.7l9.7,10.3
	L246.1,607z M233.4,478.4v6.8l-1-1.8V477L233.4,478.4z M224.7,467.9l-1.3-1.3v-3.3h2l2,4.6l2.8,2.5v5.5l-2.8-2v-6H224.7z
	 M222.2,452.6v4h-3v-4H222.2z M217.9,445.1v2.5h-3v-2.5H217.9z M213.1,437.9l-2.9,2.3l-3-2.3H213.1z M203.9,429.6h1.8v3.3l-1.8,3.3
	l-3.5-1.7L203.9,429.6z M199.2,425.5l-0.9-3.3l-0.9-3.5l1.8-3l1.3,3.5v6.3H199.2z M171.1,358.3l-1,2.7l-1.3,4h-1.7v-9.3l1.7-4.5
	l-6-7.7V340h3l8,12.5l4.9,4.8v5l5.9,5l2.5,4.7h3.7v4.3h-8.3l-3.8-4.3l-1.9-6L171.1,358.3z M176.4,381v3.8l-2,1.5l-3.3-1.5l1.3-5.2
	L176.4,381z M158.4,322.6l-3.7-5.3l1.8-2.3h1.8v3l3.2,0.7l1.2,4l5.7,5v4l-2-3.3h-6.3v3.3h-2.7v-2.3l2.7-3.3L158.4,322.6z M154.7,304
	v-6.3h2.2l1.5,5l-1.5,5L154.7,304z M164.1,331.6l2.6,2v4h-3.9l-1.2-2L164.1,331.6z M173.7,341.6h-2.7v-7h2.7l2.7,3.5L173.7,341.6z
	 M178.1,344.9l2,4l2.8,0.7l2,4.5l2.5-0.1l0.4,3.4l-2.5,0.3l-2.5-2.4l-9.4-5.6l-0.5-4.2l2.7-1.8C175.7,343.7,175.7,343.7,178.1,344.9
	z M245.4,504.9l-5.8-4v-4.8l-3.8-6.8l2-4.8l1.8-8.8l2.5,4.3l1,7.8h-1.3l-1.3,4.8l4.8,7.5V504.9z M253.4,526.1l-6-1.5v-7l5-5.8
	l0.3-17l-5.3-22.5v-5.8l3.5-16.3v-7.8l5.5-4.3v-8.5l-7.5-15.3l-3.5-22.5l3.8,7h1.3l2.8,4.8v9.3c0,0,2.3,3.5,3,3.5
	c0.8,0,0.5,3.4,0.5,3.4l4.3,12.1v5.5l-4.5,2.8l-0.5,16.3l-1.8,13.5l3.5,9.8v21.3l-1.3,1.3v14.5l-2.3,4L253.4,526.1z M257.9,536.1
	l-3-5.5v-3.3h1.3l1.8,3.3h3v4.3l-1,1.3H257.9z M264.2,545.1h-1.5l-1.8-1.5v-5h3.3V545.1z M265.2,449.1l-2.1,3.5l-2.1-2.8v-8.3h3.3
	l1,3.5V449.1z M279.7,560.4h-2.3v-2.5l2.3-1.5V560.4z M281.9,553.1h-2.3v-5.8h1.9l1.9,2.9L281.9,553.1z M283.4,543.1v-3.3l1-1.3
	l0.5,2.3L283.4,543.1z M290.4,451.6h-3.3v-4h3.3V451.6z M405.4,209.4l1,4l-1.8,4l-0.8-6.5L405.4,209.4z M398.2,241.9l1.5-2.3h2.5v6
	h-4V241.9z M394.4,248.9h1.9l1.9,4.8h-3.8V248.9z M391.9,258.4l2.5,4.8l-3.6,1.3l-1.1-2.5L391.9,258.4z M372.7,293.1l10.9-17.3v6
	l-4.7,3.8v1.9l-3.1,3.9v3.3l-6.4,4.9L372.7,293.1z M364.7,303.6h2.5v1.8h-2.5V303.6z M360.4,311.4l2,1.6l-2,1.6V311.4z M353,321.1
	l1.2-1.3h2.8l-1.4,2.8l-2.6,0.7V321.1z M308.1,413h1.7v-7.5l8-10.5c0,0-0.7-6.3,0-5.3c0.7,1,4-4.8,4-4.8l16.1-17.7l1.9-6.1l6.7-2.7
	l-2.3,7.7l-4,0.3l-1,5.3l-3.7,1.7l-7,7.7l-0.3,6l-5.7,2.5l-2,6.2l5.7,5.7h-7.7l-6.7,6l1.3,13.3h-5V413z M367.2,378.4v4.6l-4.5,5.3
	l0.8,2.4l1.5,3.8v1.6l-2.8-2.6l-2.3-3.9h-3.8l-0.5,2.2l-2.5,1.8l-1-2.8l1.3-2.4l4.3-2l2.3-3.2l-1.8-1.8l-5-5.1h-5l-1.8,5.1h-4
	l-2.5-5.1l6.5-1.9l3-3.5h5.3l5.3,4v4.8L367.2,378.4z M329.4,398.3l1-4.9l5.8-10.3l1.3-0.2l3.3,3.3l-1.7,7.1l-6.2,4.3L329.4,398.3z
	 M329.7,467.3l-2.4,1.9v1.5h-3.1v-3.5l1.5-3.3l3.8,1L329.7,467.3z M324.2,476.4v2.8h-3.4l-0.9-3.3l1.8-2.3h1.5L324.2,476.4z
	 M302.3,467.9l2.8,2.8l-2.8,5.3V467.9z M302.3,483.6l2.8,4.1v2.6h-2.8V483.6z M301.9,504.9l2.3-4l2.3,1.5l-2.3,4.3v5.3h-1.8v2.8
	l-1.3,2h-3v-8.8L301.9,504.9z M296.2,445.1h2l-0.4,6.3l-1.6,1.3V445.1z M296.2,523.4v-3.8h2l1.3,3.8H296.2z M379.1,698.3l-14,24.7
	l-1.7,8.3l-24.7,30l-1,5.7l-3.7,3l-2,2.3h-2.7l-8.7-13l-3.3-4.3v-3l19.7-18.3l4.7-6l17-16l2.3-5.7l9-10.7l9-1.3V698.3z M424.7,447.6
	l-2,37.3l-3.3,19.7l-4.7,10l5,6.3v11.7l-0.7,7.7l-3.3,10.7l-1,29.3l-6.3,36.3l-11.7,36.7l-13,32.3h-7.3l-3,3.7h-7.3l-5,4.7l-2,8.7
	l-3.7,2.3v5.3l-12.3,9.7h-3.7l-22,25.7v4.7h-3l-5-5.7l-1.3-8.2l-2.3-3.3v-5.5l18.3-12.7l9.3-15.7l0.7-4l14.2-7l3.2-17.3l12.7-12.3
	l1.3-6.3l-4-1.7l-5.7,9l-5.3,5.7l-0.3,2.7c0,0-8,8.7-8.3,7.7c0,0,0,0,0-0.1c0.2,0.5,1.4,4.4,1.4,4.4l-1.3,5.3l-16,15.2l-2,8.2
	L311.4,720l-8,2.3l-2.3,0.3l-2-27.3l21.7-23l-0.3-5l34.7-33.3l1.7-5.3l6-9l4-10.7l4.3-10.7l14.3-18v-13l-4-7.7l-4.7-3.7l-0.3-7.7h-4
	l-1.3,8l-6.3,9l-0.7,5.3l3,0.7l6.7-12.3h2.3l3,9.3l2.3,8l-16.7,22.3l0.1,6.2c0,3-1,5.8-2.9,8.1l-42.9,51.7c-1.1,1.3-2,2.8-2.6,4.4
	l-2.4,6.3l-13,12l-4.3-0.7v-4.3l-1.7-8.3v-9.3l4-8.3l2.3-14.3l22-15.7l10.3-9.7l4.3-7.3l2.2-5.3l8-4.3l1.5-3.7l5.7,0.3l8.7-12V576
	l-5,1.3l-8.7,16c0,0-7.7,4.3-8,2.7c-0.3-1.7-6.7,8-6.7,8l-8.3,9.3l0.3,3l-10.3,6.3l-12,12l-5-1.7l-1.3-12.3l0.7-5l4.3-15.7l-0.3-9
	l15.7-6.7l11.7-15.3l4.7-0.3l1.7-6.3l9-7l-3-4.3l4.8-2.7l14.2-23.3l4-4l8.3-3.3l4.3,5.3v9.3l4,3.7l1-18.3l1.3-19.3h-4.7
	c0,0-1,13-1.3,12s-16.3,4-16.3,4l-4.3,5l-11.3,19.3l0.7,4l-4.3,3.3l-3.5,5v4l-15.2,13.7l-4.3,1l-5.3,11.7l-4.7,1.3l-3.3,3.5
	l-4.7-0.2l2.3-6.3l-1-5.7l-3.7-4.7l-0.7-4.7l4-11l-1.7-8.7l-1.7-3.3l2-4.3l-2-3.3l0.7-3.7l4.3,3.7l15-11l8-2l-3-3.3l5-3.7l0.3-5.3
	l4-3.7l5.5-8.7l5.2-4.8l5.3,6.1l8.3,11l3.7,0.7l-4.7-11.7l-6.7-6.1l-11.2-3.5l-9.5,15.7l-1.3,3.3l-5.3,4.3l-12.7,13.3l-7.3,3.7
	l-0.3-5l8.3-13l4.3-14l6.7-4.8l19.7-36l-0.3-10.8l7.7-13l0.3-2.7h-4v2l-4-2l4-3.5v-8.2h3v-11.8l5.3-9.5l3,6.3l2,3.2l0.3,5.8l4.7,3.3
	l2.7,6l3.7,4.8l1.7,10.8l0.7,6.7l3.7,4.7l-0.3,15.7l1.3,2.7v12.3l7.3,7.7l2.3,10.3l5,10.7l2.7,14l-3,10.3l-0.3,19.7l1,18l-3.3,4.2
	l0.7,6.8l5,0.3l3-12v-39.7l1.7-11h2.3l1.7,18.3l6.7,2.7l2-8.7v-4.3l-4.3-3.3l-3-15.3h-4l-1.3-10.7l3.7-11.3l6.7-17l2.3-8.3l2.3-7v-8
	l7.7-10.7l2,2.3V447.6z M414.7,232.1l0.3,13.5l-1.7,5.7l-4.7,2l-0.3,6l3.3,2.6l3.7-5h3l0.3,9.5l-0.3,5.8l0.3,14.6l1.7,4.5V315
	l4.3,11l-1.3,17.8l1.3,34.2v51.7l-3.3,2.3l-3.3-1.3l-2,3l-1.3,7.3l-2.7,6.7l-4,10l-4.7,12.7l-3.7,12.3l-2,1.7v9.3l-3-2.1l-2.3-8.5
	l-4.7-6v-13.7l-6-7.8v-23.8L370.1,404v-4.8l14.3-19.5l3.3-11.7l2-7l-2.7-3.2l-6,3.2l-1,4v3.7l-1,3.7l-3.7-5.3h-1.7l-0.3,5.7l2.7,3.7
	l0.3,6.7h-3.3l-3-6.7l-1.3-4v-3.7l8-12.3l8.3-8l3-4.5h4.7l2-5.7l7.7-30.5l0.7-10l2.7-7h4.7l2.7,12l2-1.5l1-6.5l-2.7-4l-3-3.9
	l-4.7-11.8l2.3-8.6l2.3-2h-3.7l-7.1,11.9l-2.9,2v5.3l-3.7,4.3l-2.7,4.4l-4.7,8.8l-7.7,9.2l-9.3,13l-8.8,16.7l-9.5,11.2l-6.3,5.2
	l-1.7-5.2l7.7-5.2l2.7-4.3l7.2-10l5.2-5.7l1.3-7l2-4l4.7-5l1-5.3l4.7-2l-0.7-3.3l8.3-7.3v-4.1l4-2.3v-8l7.3-8l0.7-3.3l5-8.1l0.3-6.7
	l5.3-6l2.3-10l1.7-3.5H414.7z M368.2,390.6v-2.4l1.3-2l2,4.3H368.2z M372.7,354.6v-3.5l6.3-6v3.5l-3.1,1.3v4.8H372.7z M388.2,336.6
	v3.3l-1.8,1.7v3.5h-4.8v-1.5l2.8-2l2-4L388.2,336.6z M386.4,328.9v-4l1.8,1.8v5L386.4,328.9z M396.9,300.4l-1.5,7.3l-3,2.8l1,10.3
	l-3.8,2v-10.3l2.5-5.8v-4l1.8-5l1.5-9.8l1.8-2.3l2.5-3.8l2.5-1.8v3.5l-1.3,3.1l-3,1.1v6.3l-2.3,3.5L396.9,300.4z M413.2,159.5
	l-3.5-4.1l3.5-4h1.3l1,8.1H413.2z"/>
<polygon fill="none" points="152.4,251.1 149.7,250.1 149.7,243.8 152.4,247.5 "/>
<polygon fill="none" points="156.6,261.9 153.7,261.9 155.4,259.6 "/>
<polygon fill="none" points="156.7,92.8 153.7,94.6 153.7,90.9 155.2,90.9 "/>
<polygon fill="none" points="156.9,307.6 154.7,304 154.7,297.6 156.9,297.6 158.4,302.6 "/>
<polygon fill="none" points="162.4,92.8 161.2,90.9 161.2,85.4 163.4,85.4 163.4,86.6 165.7,87.6 165.7,89.7 164.2,90.9 164.2,92.8 
	"/>
<polygon fill="none" points="162.7,337.6 161.6,335.6 164.1,331.6 166.7,333.6 166.7,337.6 "/>
<polygon fill="none" points="163.4,97.1 165.9,95.6 168.4,95.6 168.4,97.9 165.7,98.6 "/>
<polygon fill="none" points="157.4,329.3 160.1,326 158.4,322.6 154.7,317.3 156.6,315 158.4,315 158.4,318 161.6,318.6 
	162.7,322.6 168.4,327.6 168.4,331.6 166.4,328.3 160.1,328.3 160.1,331.6 157.4,331.6 "/>
<polygon fill="none" points="173.7,334.6 176.4,338.1 173.7,341.6 171.1,341.6 171.1,334.6 "/>
<polygon fill="none" points="171.1,384.8 172.4,379.6 176.4,381 176.4,384.8 174.4,386.3 "/>
<polygon fill="none" points="174.4,108.1 174.4,106.4 170.4,105.9 170.4,104.4 173.4,104.4 176.8,105.4 179.2,109.6 177.4,111.1 
	175.7,112.9 "/>
<path fill="none" d="M173,345.5l2.7-1.8c0,0,0,0,2.4,1.2l2,4l2.8,0.7l2,4.5l2.5-0.1l0.4,3.4l-2.5,0.3l-2.5-2.4l-9.4-5.6L173,345.5z"
	/>
<polygon fill="none" points="176.7,366 171.1,358.3 170.1,361 168.7,365 167.1,365 167.1,355.6 168.7,351.1 162.7,343.5 162.7,340 
	165.7,340 173.7,352.5 178.7,357.3 178.7,362.3 184.6,367.3 187.1,372 190.7,372 190.7,376.3 182.4,376.3 178.7,372 "/>
<polygon fill="none" points="198.5,286.8 197.4,289.4 196.2,289.4 196.2,285.6 "/>
<polygon fill="none" points="200.4,419.1 200.4,425.5 199.2,425.5 198.3,422.1 197.4,418.6 199.2,415.6 "/>
<polygon fill="none" points="196.2,327.1 198.5,328.3 200.9,331.6 197.9,332.9 196.2,331.6 "/>
<rect x="200.9" y="291.4" fill="none" width="1.6" height="1.8"/>
<polygon fill="none" points="169.7,74.9 168.4,74.1 173.4,72.9 173.9,74.9 183.2,74.9 183.9,76.6 187.4,76.4 190.7,79.1 195.4,78.9 
	201.7,74.9 204.2,76.9 202.9,78.6 202.2,81.4 204.2,81.4 204.2,85.4 202.4,85.4 200.2,82.6 195.2,82.9 194.2,85.4 198.2,89.1 
	193.9,89.1 190.4,94.6 184.7,94.6 182.4,98.6 178.4,98.6 175.9,94.6 173.4,94.6 172.2,92.8 173.9,89.1 172.2,87.1 170.7,83.9 
	173.7,81.6 175.9,81.6 174.4,78.9 169.7,78.9 168.4,77.4 169.7,77.4 "/>
<path fill="none" d="M201.7,334.6l-0.8-1.8l3.3,1.8v3C204.2,337.6,201.9,336.6,201.7,334.6z"/>
<polygon fill="none" points="203.9,436.3 200.4,434.6 203.9,429.6 205.7,429.6 205.7,433 "/>
<polygon fill="none" points="207.2,437.9 213.1,437.9 210.2,440.1 "/>
<rect x="214.9" y="445.1" fill="none" width="3" height="2.5"/>
<path fill="none" d="M219.2,354.6l2.5-1.5c0,0,0,0,0.5,3l-3,1.6V354.6z"/>
<rect x="219.2" y="452.6" fill="none" width="3" height="4"/>
<polygon fill="none" points="214.9,74.1 213.2,72.9 213.2,70.9 224.2,70.9 227.4,73.5 221.2,72.9 218.9,72.9 218.9,74.1 "/>
<polygon fill="none" points="225.4,463.3 227.4,467.9 224.7,467.9 223.4,466.6 223.4,463.3 "/>
<polygon fill="none" points="227.4,467.9 230.2,470.4 230.2,475.9 227.4,473.9 "/>
<polygon fill="none" points="230.2,362.9 230.2,366 233.4,368.1 233.4,370.9 230.2,369.4 223.4,361.1 223.4,358.3 225.9,358.3 
	226.2,362.9 "/>
<polygon fill="none" points="232.4,483.4 232.4,477 233.4,478.4 233.4,485.1 "/>
<path fill="none" d="M238.4,411.5c0,0.1,0,0.2,0,0.2S238.4,411.6,238.4,411.5z"/>
<polygon fill="none" points="238.4,378.4 236.4,379.6 236.4,373.9 239.4,373.9 "/>
<polygon fill="none" points="243.2,384.9 241.4,386.3 241.4,381.4 243.2,381.4 "/>
<polygon fill="none" points="239.8,460.1 238.9,456.4 238.9,446.9 240.7,445.1 244.2,448.4 242.9,451.1 242.9,455.6 240.7,457.1 "/>
<polygon fill="none" points="239.7,500.9 239.7,496.1 235.9,489.4 237.9,484.6 239.7,475.9 242.2,480.1 243.2,487.9 241.9,487.9 
	240.7,492.6 245.4,500.1 245.4,504.9 "/>
<path fill="none" d="M246.1,650l1.3,4.7v10l-3.3,5v6.3l-2.7,5.3l-3.7-3.7l-5.3-8.7l-11.7-12.3l-4.3-7.7l-3,2.3l-0.7,5.3l13.7,14.3
	l2.7,1.7l6.7,10l3.3,9.3l0.3,14.3l-1.7,8.7l-4.7,3l-8-9l-11-14l-3,3.3l3,5.7l19,17.7l1.7,4.3l-4.7,7.7l-10,6.7l-3-3.8l-4.7-10.5
	l-21.3-15.7l-1.3,7.7l5.7,3.7l5,0.3l7,7.3l3,2l2,8.3l5.7,2.7l-5,8v4.7l-5.3,8.7h-5L190.4,753l-0.7-10.3l-1.7-7.7l-3.5-6l-1.5-11
	l-3-7.7l-1.7-7.3l-3.3-1.3l-1.7-4.3l-7.7-7.3l0.2,2.2l4.5,11.5l7.5,14.3v9.2l6,12.5h3.5v5.5l-10.8-8.7l-8.3-14.5l-2.5-1.7V713
	l-3.5-3.3v-5.3l-5.3-5.3v-3l-3.7-3.8v-6.5l-5-6v-4l-3.3-4.3v-7h2.7l0.3,5l3.7,3.3l2.3,5l4,4l3.3,3.3l0.3,5l4.5-3v-3.3l10.5,4.7
	l5.7,8l5,5.3v5.3l3.7,1v-10.7l-7.3-7.7l-7.3-14l-2.3-9l-8-11.3l-3-5l-1.3,4l1.3,7l5,8.7l2.3,5l-2.3,1.7l-8-1.7l-19-32l-2.3-9.7
	l-2.3-9h3l13.3,5l6,6l2.7,2.7v7.3l2.3,2.7l2-2.7l-0.3-9.7l-3.3-8l-1.3-7.7v-4.7l-4-10.3l-4.3-9.3l-3.3-7l-1.7-11.7l-3-5.3l-1.3-7h-3
	v9l3.7,5l-1,10l6.7,14l2.3,3l0.7,7.3l4.3,5.3l0.7,6.3l-4.3-0.3l-7.3-4l-10.7-6l-2.7-5.3l-4.7-28.3l-1.7-28l-2-10.3v-22l-2.3-1.7
	v-17.3h2l-0.3-7h-1.7l1.7-67.7l-1.7-21V390l2.7-27.7l3.3-11.7l-0.7-31.3l5-5.7v-40l3-7.3l0.7-9.5h3.3l-0.3-6.9l-3-1.3l-1-13
	l-3.3-3.5h-4l-4-4v-3l8.3-5.8h7l1,11.6l2,17.6l2.3,5v3.3l-2.3,5v2.5l4.9,2l1.5,5.8l1.5,3.5l8.7,13.7l1.7,5l9,5.3l22,28.7v5.7
	l6.7,7.7l13,14.7l6,8.3l8,9.3l9.7,10v5l-6,5l4.3,3.7l3.7-3.7l2,8.7l3,5c0,0-2.6,3.1-3,3.8c-0.1-0.7-1.7-3.8-1.7-3.8l-6.7-5.7l-9-4.3
	h-3.7l-4-4.7l-2.3-8.3l-7.3-4.7l-6.3,1.3l-2,6.7v6.3l0.7,6l-2.7,9.3l-4,3.7l-3.3-7.3l-4.5-3.3v-13l-1.5-12.3l3.3,1l3.7,4.7l2.3,8.7
	l2.7-0.3l-0.7-6.7l-1.3-4.7l16.3-10.7l7.3,10.3l6.7,1.3l-2.7-5.7l-27.3-31.5l-5-12.5L157.7,295l-1.3-4.7l-4.7,1.7l-2-2l-0.7-10.7
	l-6-9.7l-3.7,2.5l-1.3,3.8l-1.3,4.3l0.7,5.3l6,1.1l1.7,10.9h2l1.3,10l4.3,3.7v3.7l-4.3,2l0.3,3.7l4.3,3.7l2,9.7l3.3,17.7l2.3,9.3
	l-16.3,34.7l-1,8.7l0.7,13.3l2.7,0.7l1.3-16l3.7-8l4.7-12.7l0.7-6.3l5.7-1.3v-3.7h3l0.3,16.7l2.7,4l4,6.7l2,3.3l-9,8.7l-1,23.7v26
	l-4,1.7l0.7-11.3l-4-2.3l-2-12.3h-3l0.7,12l4,4l-0.3,27.3l-3.7,8.7l1,7.3l2.7,1l2,12.7l3.3,4.3l3,3.7l0.7-7.7l-2.3-6l6.3,0.3
	l7.3,6.3l2.7,9.7l1.8-0.3l4.8,6l3,9l1.7-5.7l-1-4l-6.7-7.7l3-11l5.3-6l5.7-5l7,11.3l10.7,13.3l6.7,3.3h4.3v-4.3l-6.7-2.3l-10-12.7
	l-8.3-13.7l-2.3-3.3L187.1,501l-5.5-4.3l-3.2,1.7l0.7,6.7l-3.3,0.3l-5-4.7l-8.7-6l-2-6l5.7-12l4-14.3v-30l8-23l3.8,0.3l9.5,15.7v4.7
	l4,2.7l2.7,6.7l14.7,14.7l1.3,7.7l19.3,37.7l1.3,5.7l4,3.3l5,14.7v6.3l-3.3,0.3l-4.7-7l-5.7-0.3v4.3l8.3,5l3.3,6l-3,23l0.7,16
	l-0.7,7l-4.7,4.7l9.7,10.3l2.7,8.3l-1.7,8.7l-1.3,8l0.7,13c0,0-3.3,3.3-3.7,2.3c-0.3-1-10-9-10-9l-6-6l1.7-9.7l-9-6.3h-7.3l-4.7-6
	l-9.3-17.7l-5.3-1.3l-6.2-8.3l-4.5-6l-1.7-8l-5.3-17l-2-4l-1.3-18l-5.7-3.3l-0.3,4l1.7,1l1.7,14l-0.7,9.7l2.7-2l1.3,6.7l1,6.3l3.7,4
	l1,10l10,11.3l5,3.3l2,5l3.3,2.7l2.3,6.7l2,2.3l1.3,5.7l7.7,5h8l2.3,7.3l-3,2.7l12.7,12.3l8.7,3.7L246.1,650z"/>
<polygon fill="none" points="248.7,83.6 243.9,81.1 251.9,81.1 251.9,85.4 249.9,85.4 "/>
<path fill="none" d="M256.4,516.9l-2.3,4l-0.8,5.3l-6-1.5v-7l5-5.8l0.3-17l-5.3-22.5v-5.8l3.5-16.3v-7.8l5.5-4.3v-8.5l-7.5-15.3
	l-3.5-22.5l3.8,7h1.3l2.8,4.8v9.3c0,0,2.3,3.5,3,3.5c0.8,0,0.5,3.4,0.5,3.4l4.3,12.1v5.5l-4.5,2.8l-0.5,16.3l-1.8,13.5l3.5,9.8v21.3
	l-1.3,1.3V516.9z"/>
<polygon fill="none" points="260.9,534.9 259.9,536.1 257.9,536.1 254.9,530.6 254.9,527.4 256.2,527.4 257.9,530.6 260.9,530.6 "/>
<polygon fill="none" points="260.9,538.6 264.2,538.6 264.2,545.1 262.7,545.1 260.9,543.6 "/>
<polygon fill="none" points="264.2,441.6 265.2,445.1 265.2,449.1 263,452.6 260.9,449.9 260.9,441.6 "/>
<polygon fill="none" points="277.4,557.9 279.7,556.4 279.7,560.4 277.4,560.4 "/>
<polygon fill="none" points="274.2,66.6 272.9,64.1 272.9,62.4 274.2,57.9 274.2,55.9 277.5,55.1 278.9,54.1 282.2,55.9 280.9,60.6 
	278.9,62.3 280.9,64.1 280.9,68.6 275.9,68.6 "/>
<polygon fill="none" points="281.5,547.4 283.4,550.3 281.9,553.1 279.7,553.1 279.7,547.4 "/>
<polygon fill="none" points="284.4,538.6 284.9,540.9 283.4,543.1 283.4,539.9 "/>
<rect x="287.2" y="447.6" fill="none" width="3.3" height="4"/>
<polygon fill="none" points="290.2,85.4 291.5,88.1 284.4,87.1 278.9,89.1 275.7,89.1 274.7,90.9 272.9,89.1 269.9,87.6 264.7,87.1 
	264.7,89.1 259.4,89.1 254.7,86.9 254.7,83.3 260.2,83.3 260.4,85.4 268.7,85.4 273.1,87.1 277.5,87.1 282.2,84.4 "/>
<polygon fill="none" points="295.7,63.6 292.4,65.6 290.4,68.6 285.8,66.6 285.8,61.4 286.9,61.4 287.7,59.1 290.2,59.1 291.9,56.9 
	297.2,58 297.2,61.4 "/>
<polygon fill="none" points="298.2,445.1 297.8,451.4 296.2,452.6 296.2,445.1 "/>
<polygon fill="none" points="296.2,519.6 298.2,519.6 299.4,523.4 296.2,523.4 "/>
<polygon fill="none" points="297.2,81.1 301,78.4 303.4,82.2 300.4,83.3 298.7,81.1 "/>
<polygon fill="none" points="302.3,467.9 305.1,470.6 302.3,475.9 "/>
<polygon fill="none" points="305.1,490.4 302.3,490.4 302.3,483.6 305.1,487.8 "/>
<polygon fill="none" points="301.2,516.6 298.2,516.6 298.2,507.9 301.9,504.9 304.2,500.9 306.4,502.4 304.2,506.6 304.2,511.9 
	302.4,511.9 302.4,514.6 "/>
<polygon fill="none" points="319.8,297.6 322.4,299.5 320.9,301.4 317.2,301.4 317.2,297.6 "/>
<polygon fill="none" points="321.7,473.6 323.2,473.6 324.2,476.4 324.2,479.1 320.8,479.1 319.9,475.9 "/>
<polygon fill="none" points="324.9,347.1 321.2,348.1 321.2,341.6 323.7,341.6 "/>
<polygon fill="none" points="322.4,331.6 324.9,330 324.9,334.6 322.4,336.6 "/>
<polygon fill="none" points="316.9,74.1 314.7,74.1 314.7,70.9 322.7,70.9 325.7,72.9 322.2,74.1 322.2,72.5 317.9,72.9 "/>
<polygon fill="none" points="327.7,354.6 324.9,353.1 324.9,350.9 327.7,350.9 "/>
<polygon fill="none" points="327.2,317.9 325.9,316.9 325.9,311.4 327.7,311.4 329.4,317.9 "/>
<polygon fill="none" points="329.4,464.9 329.7,467.3 327.2,469.1 327.2,470.6 324.2,470.6 324.2,467.1 325.7,463.9 "/>
<polygon fill="none" points="335.9,74.1 333.7,70.9 337.9,70.9 337.9,74.1 "/>
<polygon fill="none" points="332.8,397.6 329.4,398.3 330.4,393.4 336.2,383.1 337.4,383 340.7,386.3 339,393.4 "/>
<path fill="none" d="M313.1,420.6h-5V413h1.7v-7.5l8-10.5c0,0-0.7-6.3,0-5.3c0.7,1,4-4.8,4-4.8l16.1-17.7l1.9-6.1l6.7-2.7l-2.3,7.7
	l-4,0.3l-1,5.3l-3.7,1.7l-7,7.7l-0.3,6l-5.7,2.5l-2,6.2l5.7,5.7h-7.7l-6.7,6L313.1,420.6z"/>
<polygon fill="none" points="355.5,322.6 353,323.3 353,321.1 354.2,319.9 356.9,319.9 "/>
<polygon fill="none" points="359.2,82.1 355.2,83.3 357.4,80.8 358.5,79.4 361.9,79.4 361.9,81.1 "/>
<polygon fill="none" points="360.4,311.4 362.4,313 360.4,314.6 "/>
<rect x="364.7" y="303.6" fill="none" width="2.5" height="1.8"/>
<polygon fill="none" points="359.9,374.9 359.9,379.6 367.2,378.4 367.2,383 362.7,388.3 363.4,390.6 364.9,394.4 364.9,396 
	362.2,393.4 359.9,389.5 356.2,389.5 355.7,391.6 353.2,393.4 352.2,390.6 353.4,388.3 357.7,386.3 359.9,383.1 358.2,381.4 
	353.2,376.3 348.2,376.3 346.4,381.4 342.4,381.4 339.9,376.3 346.4,374.4 349.4,370.9 354.7,370.9 "/>
<polygon fill="none" points="371.4,390.6 368.2,390.6 368.2,388.3 369.4,386.3 "/>
<polygon fill="none" points="375.8,349.9 375.8,354.6 372.7,354.6 372.7,351.1 378.9,345.1 378.9,348.6 "/>
<polygon fill="none" points="370.1,695.3 379.1,694 379.1,698.3 365.1,723 363.4,731.3 338.7,761.3 337.7,767 334.1,770 
	332.1,772.3 329.4,772.3 320.7,759.3 317.4,755 317.4,752 337.1,733.6 341.7,727.6 358.7,711.6 361.1,706 "/>
<polygon fill="none" points="379.4,102.6 376.7,102.6 376.7,98.6 379.4,100.6 "/>
<polygon fill="none" points="375.8,294.6 369.4,299.5 372.7,293.1 383.6,275.9 383.6,281.9 378.9,285.6 378.9,287.5 375.8,291.4 "/>
<polygon fill="none" points="388.2,331.6 386.4,328.9 386.4,324.9 388.2,326.6 "/>
<polygon fill="none" points="386.4,337.6 388.2,336.6 388.2,340 386.4,341.6 386.4,345.1 381.7,345.1 381.7,343.7 384.4,341.6 "/>
<polygon fill="none" points="389.7,261.9 391.9,258.4 394.4,263.1 390.8,264.4 "/>
<polygon fill="none" points="396.3,248.9 398.2,253.6 394.4,253.6 394.4,248.9 "/>
<polygon fill="none" points="398.7,119.1 396.7,120.6 396.7,117.6 "/>
<polygon fill="none" points="402.2,245.6 398.2,245.6 398.2,241.9 399.7,239.6 402.2,239.6 "/>
<polygon fill="none" points="397.9,294.1 395.7,297.6 396.9,300.4 395.4,307.6 392.4,310.4 393.4,320.6 389.7,322.6 389.7,312.4 
	392.2,306.6 392.2,302.6 393.9,297.6 395.4,287.9 397.2,285.6 399.7,281.9 402.2,280.1 402.2,283.6 400.9,286.8 397.9,287.9 "/>
<polygon fill="none" points="405.4,209.4 406.4,213.4 404.7,217.4 403.9,210.9 "/>
<polygon fill="none" points="407.2,115.3 405.9,116.4 405.9,117.6 403.7,117.6 403.7,112.9 407.2,112.9 "/>
<polygon fill="none" points="388.2,98.6 382.7,99.6 382.7,96.6 385.4,96.6 387.2,94.6 389.7,90.9 389.7,81.1 390.2,79.6 391.9,78.4 
	395.4,78.4 399.2,79.9 404.7,85.4 409.7,90.9 410.7,94.6 410.7,104.4 405.7,104.4 403.2,102.9 400.7,102.6 397.4,104.4 "/>
<polygon fill="none" points="409.7,155.4 413.2,151.4 414.4,151.4 415.4,159.5 413.2,159.5 "/>
<polygon fill="none" points="423.4,343.8 424.7,378 424.7,429.6 421.4,432 418.1,430.6 416.1,433.6 414.7,441 412.1,447.6 
	408.1,457.6 403.4,470.3 399.7,482.6 397.7,484.3 397.7,493.6 394.7,491.5 392.4,483 387.7,477 387.7,463.3 381.7,455.5 
	381.7,431.6 370.1,404 370.1,399.1 384.4,379.6 387.7,368 389.7,361 387.1,357.8 381.1,361 380.1,365 380.1,368.6 379.1,372.3 
	375.4,367 373.7,367 373.4,372.6 376.1,376.3 376.4,383 373.1,383 370.1,376.3 368.7,372.3 368.7,368.6 376.7,356.3 385.1,348.3 
	388.1,343.8 392.7,343.8 394.7,338.1 402.4,307.6 403.1,297.6 405.7,290.6 410.4,290.6 413.1,302.6 415.1,301.1 416.1,294.6 
	413.4,290.6 410.4,286.8 405.7,275 408.1,266.4 410.4,264.4 406.7,264.4 399.7,276.3 396.7,278.3 396.7,283.6 393.1,287.9 
	390.4,292.3 385.7,301.1 378.1,310.3 368.7,323.3 359.9,340 350.4,351.1 344.1,356.3 342.4,351.1 350.1,346 352.7,341.6 
	359.9,331.6 365.1,326 366.4,319 368.4,315 373.1,310 374.1,304.6 378.7,302.6 378.1,299.3 386.4,292 386.4,287.9 390.4,285.6 
	390.4,277.6 397.7,269.6 398.4,266.4 403.4,258.3 403.7,251.6 409.1,245.6 411.4,235.6 413.1,232.1 414.7,232.1 415.1,245.6 
	413.4,251.3 408.7,253.3 408.4,259.3 411.7,261.9 415.4,256.9 418.4,256.9 418.7,266.4 418.4,272.1 418.7,286.8 420.4,291.3 
	420.4,315 424.7,326 "/>
<path fill="none" d="M422.7,434l2,2.3v11.3l-2,37.3l-3.3,19.7l-4.7,10l5,6.3v11.7l-0.7,7.7l-3.3,10.7l-1,29.3l-6.3,36.3l-11.7,36.7
	l-13,32.3h-7.3l-3,3.7h-7.3l-5,4.7l-2,8.7l-3.7,2.3v5.3l-12.3,9.7h-3.7l-22,25.7v4.7h-3l-5-5.7l-1.3-8.2l-2.3-3.3v-5.5l18.3-12.7
	l9.3-15.7l0.7-4l14.2-7l3.2-17.3l12.7-12.3l1.3-6.3l-4-1.7l-5.7,9l-5.3,5.7l-0.3,2.7c0,0-8,8.7-8.3,7.7c0,0,0,0,0-0.1
	c0.2,0.5,1.4,4.4,1.4,4.4l-1.3,5.3l-16,15.2l-2,8.2L311.4,720l-8,2.3l-2.3,0.3l-2-27.3l21.7-23l-0.3-5l34.7-33.3l1.7-5.3l6-9l4-10.7
	l4.3-10.7l14.3-18v-13l-4-7.7l-4.7-3.7l-0.3-7.7h-4l-1.3,8l-6.3,9l-0.7,5.3l3,0.7l6.7-12.3h2.3l3,9.3l2.3,8l-16.7,22.3l0.1,6.2
	c0,3-1,5.8-2.9,8.1l-42.9,51.7c-1.1,1.3-2,2.8-2.6,4.4l-2.4,6.3l-13,12l-4.3-0.7v-4.3l-1.7-8.3v-9.3l4-8.3l2.3-14.3l22-15.7
	l10.3-9.7l4.3-7.3l2.2-5.3l8-4.3l1.5-3.7l5.7,0.3l8.7-12V576l-5,1.3l-8.7,16c0,0-7.7,4.3-8,2.7c-0.3-1.7-6.7,8-6.7,8l-8.3,9.3l0.3,3
	l-10.3,6.3l-12,12l-5-1.7l-1.3-12.3l0.7-5l4.3-15.7l-0.3-9l15.7-6.7l11.7-15.3l4.7-0.3l1.7-6.3l9-7l-3-4.3l4.8-2.7l14.2-23.3l4-4
	l8.3-3.3l4.3,5.3v9.3l4,3.7l1-18.3l1.3-19.3h-4.7c0,0-1,13-1.3,12s-16.3,4-16.3,4l-4.3,5l-11.3,19.3l0.7,4l-4.3,3.3l-3.5,5v4
	l-15.2,13.7l-4.3,1l-5.3,11.7l-4.7,1.3l-3.3,3.5l-4.7-0.2l2.3-6.3l-1-5.7l-3.7-4.7l-0.7-4.7l4-11l-1.7-8.7l-1.7-3.3l2-4.3l-2-3.3
	l0.7-3.7l4.3,3.7l15-11l8-2l-3-3.3l5-3.7l0.3-5.3l4-3.7l5.5-8.7l5.2-4.8l5.3,6.1l8.3,11l3.7,0.7l-4.7-11.7l-6.7-6.1l-11.2-3.5
	l-9.5,15.7l-1.3,3.3l-5.3,4.3l-12.7,13.3l-7.3,3.7l-0.3-5l8.3-13l4.3-14l6.7-4.8l19.7-36l-0.3-10.8l7.7-13l0.3-2.7h-4v2l-4-2l4-3.5
	v-8.2h3v-11.8l5.3-9.5l3,6.3l2,3.2l0.3,5.8l4.7,3.3l2.7,6l3.7,4.8l1.7,10.8l0.7,6.7l3.7,4.7l-0.3,15.7l1.3,2.7v12.3l7.3,7.7
	l2.3,10.3l5,10.7l2.7,14l-3,10.3l-0.3,19.7l1,18l-3.3,4.2l0.7,6.8l5,0.3l3-12v-39.7l1.7-11h2.3l1.7,18.3l6.7,2.7l2-8.7v-4.3
	l-4.3-3.3l-3-15.3h-4l-1.3-10.7l3.7-11.3l6.7-17l2.3-8.3l2.3-7v-8L422.7,434z"/>
<polygon points="104.7,337 101.1,337 97.7,337 96.2,339.6 91.7,341.3 89.1,343.3 89.1,348 90.7,349.6 93.7,349.6 96.2,347 
	96.2,349.6 96.9,352 101.1,353.6 107.1,353.6 109.1,350.3 109.1,345.3 110.7,344 113.4,342.6 113.4,338.3 111.1,334 108.4,334 
	108.7,337.6 110.4,339.3 107.7,343.8 106.4,346 101.2,346 101.2,343.8 103.7,341.3 "/>
<polygon points="261.4,718 259.7,720 260.6,725 256.7,727.6 256.7,735.3 253.7,737.6 252.1,739.3 250.4,744 246.1,748 243.7,752.3 
	243.7,755 246.4,755 250.1,749.6 252.6,747 252.6,745.3 255.1,743.6 256.7,739.3 259.4,736.5 261.4,731.6 263.4,726 265.1,724 
	263.4,718 "/>
<polygon points="148.1,206.3 149.7,204.6 148.1,203.9 146.7,205.1 "/>
<polygon points="151.2,217.4 151.2,219.4 153.7,219.4 153.7,217.4 152.4,217.4 "/>
<polygon points="155.4,226.6 156.9,228.1 158.4,227.4 "/>
<rect x="354.2" y="226.6" width="2.8" height="1.5"/>
<polygon fill="none" points="280.9,60.6 278.9,62.3 280.9,64.1 280.9,68.6 275.9,68.6 274.2,66.6 272.9,64.1 272.9,62.4 274.2,57.9 
	274.2,55.9 277.5,55.1 278.9,54.1 282.2,55.9 "/>
<polygon fill="none" points="297.2,58 297.2,61.4 295.7,63.6 292.4,65.6 290.4,68.6 285.8,66.6 285.8,61.4 286.9,61.4 287.7,59.1 
	290.2,59.1 291.9,56.9 "/>
<polygon fill="none" points="156.7,92.8 153.7,94.6 153.7,90.9 155.2,90.9 "/>
<polygon fill="none" points="165.7,87.6 165.7,89.7 164.2,90.9 164.2,92.8 162.4,92.8 161.2,90.9 161.2,85.4 163.4,85.4 163.4,86.6 
	"/>
<polygon fill="none" points="202.2,81.4 204.2,81.4 204.2,85.4 202.4,85.4 200.2,82.6 195.2,82.9 194.2,85.4 198.2,89.1 193.9,89.1 
	190.4,94.6 184.7,94.6 182.4,98.6 178.4,98.6 175.9,94.6 173.4,94.6 172.2,92.8 173.9,89.1 172.2,87.1 170.7,83.9 173.7,81.6 
	175.9,81.6 174.4,78.9 169.7,78.9 168.4,77.4 169.7,77.4 169.7,74.9 168.4,74.1 173.4,72.9 173.9,74.9 183.2,74.9 183.9,76.6 
	187.4,76.4 190.7,79.1 195.4,78.9 201.7,74.9 204.2,76.9 202.9,78.6 "/>
<polygon fill="none" points="227.4,73.5 221.2,72.9 218.9,72.9 218.9,74.1 214.9,74.1 213.2,72.9 213.2,70.9 224.2,70.9 "/>
<polygon fill="none" points="251.9,81.1 251.9,85.4 249.9,85.4 248.7,83.6 243.9,81.1 "/>
<polygon fill="none" points="291.5,88.1 284.4,87.1 278.9,89.1 275.7,89.1 274.7,90.9 272.9,89.1 269.9,87.6 264.7,87.1 264.7,89.1 
	259.4,89.1 254.7,86.9 254.7,83.3 260.2,83.3 260.4,85.4 268.7,85.4 273.1,87.1 277.5,87.1 282.2,84.4 290.2,85.4 "/>
<polygon fill="none" points="410.7,94.6 410.7,104.4 405.7,104.4 403.2,102.9 400.7,102.6 397.4,104.4 388.2,98.6 382.7,99.6 
	382.7,96.6 385.4,96.6 387.2,94.6 389.7,90.9 389.7,81.1 390.2,79.6 391.9,78.4 395.4,78.4 399.2,79.9 404.7,85.4 409.7,90.9 "/>
<polygon fill="none" points="303.4,82.2 300.4,83.3 298.7,81.1 297.2,81.1 301,78.4 "/>
<polygon fill="none" points="322.2,74.1 322.2,72.5 317.9,72.9 316.9,74.1 314.7,74.1 314.7,70.9 322.7,70.9 325.7,72.9 "/>
<polygon fill="none" points="337.9,70.9 337.9,74.1 335.9,74.1 333.7,70.9 "/>
<polygon fill="none" points="361.9,79.4 361.9,81.1 359.2,82.1 355.2,83.3 357.4,80.8 358.5,79.4 "/>
<polygon fill="none" points="379.4,100.6 379.4,102.6 376.7,102.6 376.7,98.6 "/>
<polygon fill="none" points="398.7,119.1 396.7,120.6 396.7,117.6 "/>
<polygon fill="none" points="407.2,112.9 407.2,115.3 405.9,116.4 405.9,117.6 403.7,117.6 403.7,112.9 "/>
<path d="M415.4,134.4v-5v-1.7l1.8-1.3h2.3v-3.5l1.5-2.3h2.5v-3l1-2.4l4.3-2.4v-4v-2.3l-1-4l1-2v-3.5h4l1.8,1.5l-1.5,4l-0.3,6
	l0.3,2.3v2h-3l-0.8,2.9l-0.3,3.4l-4,3.8v2.8l-3.3,1.5l-0.8,1.2l1,4.3l-2,3c0,0-2.5,1.3-3.5,0S415.4,134.4,415.4,134.4z"/>
<path d="M379.4,130.6l-8.3-2l-6.7-4l-2.5-4h-5l-6.5-4h-6.7l-4.3-3.8l-13.8-5.9h-8.3l-2.8-2.6h-7.3l-4-1.8l-6.3,1.8l-5.7-3.8h-5.7
	l-3.7,1l2.8,7l0.9,4.3l-1.4,2.4l0.5,8l0.9,3v8l-0.9,8.7l-2.8,7l-4.6,7.3v5.3l-2.8,2.3l-1.8-2.7l0.2-4V155l1.7-3.3l0.7-4.3l-2.3-8.3
	l-0.2-5.7l-1.8-2.3v-10.3l4.3-6.7v-7.7l-7.3-1.9h-28l-29.3,8.5v3.8h-9l-7,1l-8.5,4.3l-8.2,1.7l-9.7,3.7v1.7h-5l-2.3,3v4.2l2.3-2.2
	l-1,13.3l-1.3,7.7l2.3,1.7v5.3h-2.3l2.3,4.7l3.7,3h33.7l3.4,2l2.9-3.7l6.1,5.3l7.1,1.7l20.1-6.3h11.5l4.8,6.3l7.7-4l13.1,0.3
	l30.9-2.7h25.3l20.5,6.3l25.3-2l3.3-4l4.1,0.3V164l4.3-2.7l-2.3-2.7l2.3-10.7l3.3-0.7v-7.6L379.4,130.6z M258.9,128.6h2.3v4.5h-2.3
	V128.6z M254.7,116.7l2.3,4h-2.3V116.7z M213.9,162.3h-5v-1.7h5V162.3z M232.7,162.9l-4.3,1l-1-2.1l5.3-1.3V162.9z M263.4,163.6
	l-8.8,1.7l-4.9-5.7l-3.7-4l-26-0.7l-5.7,0.3l-6-6l-4.3-1.3l-4.1-5l-2.3-5.2l-1.3-1.6l-3.3-5.6l-3.3-0.7h-3.5v2.3l2.8,5.5l3,6.5
	l2.3,3.7l3.7,3.7c1.7,4.7,1.7,4.7,1.7,4.7l4.4,4.3v4.7l-6.1-1.3l-11.8,1.3l-8.2-3.3l-0.7-4.3l-3.3-3v-2.3l3.3-1.3l1.3-5.7h-5.3v2.3
	h-3v-5.3l3-1.3l-0.7-3.2l-2.3-5.2l2.3-3.3h4.3l2.3-1.3l3.7-1.7h5.7l1.7,1.7l5-3l8.8-2l7.9-2.3l7-1.5l15-2.5h7.7l6.2,7l4,6V140l5.2,5
	v5.3l3,4.7l5.3,6.3L263.4,163.6z M263.4,146.4V141l4.3,1.9v5h-2.3L263.4,146.4z M268.9,155.4h-3.4V150l3.4,1.7V155.4z M293.2,141
	h2.5v4.5l-2.5,2.4l-0.8,2.1l-0.8-2.1L293.2,141z M284.4,161.9v-4.8l3.3,3.5L284.4,161.9z M287.9,155.4h-2.1l2.1-5.4l1.8,2.7
	L287.9,155.4z M328.7,153.3l-12.3-1.7l-16.1,11l-6.2,1.3l-2.6-2.3v-3.3l2.3-2l5-4.3l6.3-11l4-10.3v-4l3.7-7.5l6-3.9h4.3l3.6,2.4h8.4
	l3,3h5l6.3,4.3l4.8,2l7.8-1v6.7l-3.4,2l-8.5,11l-5-0.3l-9.3,8.3L328.7,153.3z M342.7,160.6l-3.5-1.1v-2.4h3.5V160.6z M387.7,146
	l-5.1,3.3v5.3c0,0-8.3,4.7-8.3,3.7s-4.3,0.7-4.3,0.7l-0.3,5h-9.3l-6.3,1.3h-8.8l-1.7-1.3l1.7-3.3l9.8-11.3l6.8-6l2.5-2.3l4-4.8
	l8.3-1.6l6,5h5.1V146z"/>
<rect x="208.9" y="160.6" fill="none" width="5" height="1.7"/>
<polygon fill="none" points="232.7,160.6 232.7,162.9 228.4,164 227.4,161.9 "/>
<polygon fill="none" points="256.9,120.6 254.7,120.6 254.7,116.7 "/>
<rect x="258.9" y="128.6" fill="none" width="2.3" height="4.5"/>
<path fill="none" d="M265.4,161.3l-2,2.3l-8.8,1.7l-4.9-5.7l-3.7-4l-26-0.7l-5.7,0.3l-6-6l-4.3-1.3l-4.1-5l-2.3-5.2l-1.3-1.6
	l-3.3-5.6l-3.3-0.7h-3.5v2.3l2.8,5.5l3,6.5l2.3,3.7l3.7,3.7c1.7,4.7,1.7,4.7,1.7,4.7l4.4,4.3v4.7l-6.1-1.3l-11.8,1.3l-8.2-3.3
	l-0.7-4.3l-3.3-3v-2.3l3.3-1.3l1.3-5.7h-5.3v2.3h-3v-5.3l3-1.3l-0.7-3.2l-2.3-5.2l2.3-3.3h4.3l2.3-1.3l3.7-1.7h5.7l1.7,1.7l5-3
	l8.8-2l7.9-2.3l7-1.5l15-2.5h7.7l6.2,7l4,6V140l5.2,5v5.3l3,4.7L265.4,161.3z"/>
<polygon fill="none" points="267.7,142.9 267.7,147.9 265.4,147.9 263.4,146.4 263.4,141 "/>
<polygon fill="none" points="268.9,151.6 268.9,155.4 265.5,155.4 265.5,150 "/>
<polygon fill="none" points="287.7,160.6 284.4,161.9 284.4,157.1 "/>
<polygon fill="none" points="289.7,152.7 287.9,155.4 285.8,155.4 287.9,150 "/>
<polygon fill="none" points="295.7,141 295.7,145.5 293.2,147.9 292.3,150 291.5,147.9 293.2,141 "/>
<polygon fill="none" points="342.7,157.1 342.7,160.6 339.2,159.5 339.2,157.1 "/>
<polygon fill="none" points="361.9,126 361.9,132.6 358.5,134.6 350.1,145.6 345.1,145.3 335.7,153.6 328.7,153.3 316.4,151.6 
	300.3,162.6 294.1,164 291.5,161.6 291.5,158.3 293.7,156.3 298.7,152 305.1,141 309.1,130.6 309.1,126.6 312.7,119.1 318.7,115.3 
	323.1,115.3 326.7,117.6 335.1,117.6 338.1,120.6 343.1,120.6 349.4,125 354.2,127 "/>
<path fill="none" d="M387.7,139.6v6.4l-5.1,3.3v5.3c0,0-8.3,4.7-8.3,3.7s-4.3,0.7-4.3,0.7l-0.3,5h-9.3l-6.3,1.3h-8.8l-1.7-1.3
	l1.7-3.3l9.8-11.3l6.8-6l2.5-2.3l4-4.8l8.3-1.6l6,5H387.7z"/>
<path fill="none" d="M265.4,161.3l-2,2.3l-8.8,1.7l-4.9-5.7l-3.7-4l-26-0.7l-5.7,0.3l-6-6l-4.3-1.3l-4.1-5l-2.3-5.2l-1.3-1.6
	l-3.3-5.6l-3.3-0.7h-3.5v2.3l2.8,5.5l3,6.5l2.3,3.7l3.7,3.7c1.7,4.7,1.7,4.7,1.7,4.7l4.4,4.3v4.7l-6.1-1.3l-11.8,1.3l-8.2-3.3
	l-0.7-4.3l-3.3-3v-2.3l3.3-1.3l1.3-5.7h-5.3v2.3h-3v-5.3l3-1.3l-0.7-3.2l-2.3-5.2l2.3-3.3h4.3l2.3-1.3l3.7-1.7h5.7l1.7,1.7l5-3
	l8.8-2l7.9-2.3l7-1.5l15-2.5h7.7l6.2,7l4,6V140l5.2,5v5.3l3,4.7L265.4,161.3z"/>
<polygon fill="none" points="361.9,126 361.9,132.6 358.5,134.6 350.1,145.6 345.1,145.3 335.7,153.6 328.7,153.3 316.4,151.6 
	300.3,162.6 294.1,164 291.5,161.6 291.5,158.3 293.7,156.3 298.7,152 305.1,141 309.1,130.6 309.1,126.6 312.7,119.1 318.7,115.3 
	323.1,115.3 326.7,117.6 335.1,117.6 338.1,120.6 343.1,120.6 349.4,125 354.2,127 "/>
<path fill="none" d="M387.7,139.6v6.4l-5.1,3.3v5.3c0,0-8.3,4.7-8.3,3.7s-4.3,0.7-4.3,0.7l-0.3,5h-9.3l-6.3,1.3h-8.8l-1.7-1.3
	l1.7-3.3l9.8-11.3l6.8-6l2.5-2.3l4-4.8l8.3-1.6l6,5H387.7z"/>
<polygon fill="none" points="168.4,95.6 168.4,97.9 165.7,98.6 163.4,97.1 165.9,95.6 "/>
<polygon fill="none" points="179.2,109.6 177.4,111.1 175.7,112.9 174.4,108.1 174.4,106.4 170.4,105.9 170.4,104.4 173.4,104.4 
	176.8,105.4 "/>
<polygon fill="none" points="267.7,142.9 267.7,147.9 265.4,147.9 263.4,146.4 263.4,141 "/>
<polygon fill="none" points="268.9,151.6 268.9,155.4 265.5,155.4 265.5,150 "/>
<polygon fill="none" points="295.7,141 295.7,145.5 293.2,147.9 292.3,150 291.5,147.9 293.2,141 "/>
<polygon fill="none" points="289.7,152.7 287.9,155.4 285.8,155.4 287.9,150 "/>
<polygon fill="none" points="287.7,160.6 284.4,161.9 284.4,157.1 "/>
<polygon fill="none" points="342.7,157.1 342.7,160.6 339.2,159.5 339.2,157.1 "/>
<polygon fill="none" points="256.9,120.6 254.7,120.6 254.7,116.7 "/>
<rect x="258.9" y="128.6" fill="none" width="2.3" height="4.5"/>
<polygon fill="none" points="232.7,160.6 232.7,162.9 228.4,164 227.4,161.9 "/>
<polygon fill="none" points="415.4,159.5 413.2,159.5 409.7,155.4 413.2,151.4 414.4,151.4 "/>
<rect x="208.9" y="160.6" fill="none" width="5" height="1.7"/>
<path d="M281.9,235.6v-14.3l-5-5.3l-2.5,2.3v16.3l-1.8,4.8l-15,14.3l-8.5,6l-8.5,10.5l-2.3,4.3v13.8l8.8,4.5l9.3,5h46.3l5.3-2
	l7.5-6.5v-13L281.9,235.6z M245.2,283.6v-1.8h2.5L245.2,283.6z M251.7,272.1h-2.8v-2.5h2.8V272.1z M279.9,245.6l-4.3-1.3l2.1-2.5
	l3.1,1.9L279.9,245.6z M301.9,268.4h-3v-3l3-1V268.4z M306.2,287.9h-2v-2.3h2V287.9z"/>
<polygon fill="none" points="245.2,281.9 247.7,281.9 245.2,283.6 "/>
<rect x="248.9" y="269.6" fill="none" width="2.8" height="2.5"/>
<polygon fill="none" points="277.8,241.9 280.9,243.8 279.9,245.6 275.7,244.4 "/>
<polygon fill="none" points="298.9,265.4 301.9,264.4 301.9,268.4 298.9,268.4 "/>
<rect x="304.2" y="285.6" fill="none" width="2" height="2.3"/>
<polygon fill="none" points="280.9,243.8 279.9,245.6 275.7,244.4 277.8,241.9 "/>
<polygon fill="none" points="301.9,264.4 301.9,268.4 298.9,268.4 298.9,265.4 "/>
<rect x="304.2" y="285.6" fill="none" width="2" height="2.3"/>
<polygon fill="none" points="247.7,281.9 245.2,283.6 245.2,281.9 "/>
<rect x="248.9" y="269.6" fill="none" width="2.8" height="2.5"/>
<path d="M272.7,190.9h-7.3l-10.8-4.8h-5.8l-10.5,6l-2.3,0.5l-3.5-2.8l-7-0.3l-6.3-3.5h-18.5l-3.8,3.5h-18l-7.3-3.5h-4l-4.8-4h-6.3
	v5.8l1.5,0.5v7l5.8,15.8l-0.3,6.3l4.8,10.8l1.8,15.6l17,15.6l5.3-0.5v-2l-2.8-2.5l1.4-4.3l-1.4-4.5l-4.5-8.3l-3-9.3
	c0,0-12.3-13.3-12-14.5c0.1-0.5,0.2-0.8,0.2-1c0,0,0,0,0,0l0,0v0l0,0c0,0,0,0,0,0c0-0.1,0-0.1,0-0.1c0.3-1.5-0.3-7.3-0.3-7.3
	l-4.3-5.2v-9l4.3,1.5l4.8,2.3l2,0.8l15.5,1l8.3,4.5l5.3,13l3.8,11l1.5,8.5l2.5,7l-1.3,7.5v5.5l-3.8,3.5v5h6.5l2.5-9l7.5-7.3l2-17.5
	l1.5-4.5v-17.3l2.5-1.2l-4-5v-5.8l2.6,0.5l4.1,5.5v19l1.8,1.3v3.5l2.5,2.3v5l14.5,10.5l12.5-9.3l0.1-4.5l-2.1-0.8l5.5-4.8l-1.3-5.3
	l4.8-4.8l1.5-3.5v-9.5l1.8-1.3v-2.8L272.7,190.9z M180.5,239.6l1.9,2.3l-1,3.8l-2.8-3.8L180.5,239.6z M174.7,232.1h2.8v3.5h-2.8
	V232.1z M219.7,199.9h-1.8v-4.3h1.8V199.9z M251.7,232.1l-2.8-2l2.8-2l3.3,2L251.7,232.1z"/>
<rect x="174.7" y="232.1" fill="none" width="2.8" height="3.5"/>
<polygon fill="none" points="180.5,239.6 182.4,241.9 181.4,245.6 178.7,241.9 "/>
<rect x="217.9" y="195.6" fill="none" width="1.8" height="4.3"/>
<polygon fill="none" points="254.9,230.1 251.7,232.1 248.9,230.1 251.7,228.1 "/>
<path d="M398.7,190.1l-4.3-1l-3.3,3.3l-6.3,0.8l-4.5-1.5l-4,0.3l-3.5,1l-2.8-2l-4.4,2l-16.3,0.8l-6.8-2.3l-7.5-0.3l-2.8-2h-3l-1.5,2
	l-4-0.3l-2.8,2l-3.5-0.3l-15.8-6.8h-4.5l-7.8,2.8l-11.4,1.5v3.5l7.8,6.5v3.8h-1.7l0.5,14.5l2.8,5.5v9.8l9.9,8.3h6.5l11.3-12.5v-4
	h2.5v-4.8l-2.5-1.3l1.3-2l2.5-1.4v-6.1l2-1v-10l4.3,0.8v46l2.8,2.5l1.3,8.8l6.3,7.5h3.5l1.8-2.5v-10.3l1.8-1.3l-1.8-4.8l6.5-15v-5.5
	l9.5-14v-1.8l8.8-10.5l9.9-0.8l4-1.5l5.3,3.3v6.4l-3.5,3.8v3.3l-8.8,11.5l-0.3,3.3l-3.8,3.8l-1,4.5l-1.9,3.3l-1.3,2.3l1.3,1.9v1.9
	l-10.2,6.8v6.8h3.4l5.3-3.5l3.5-5l8.8-5l5-10l-0.3-7.5l3.8-0.9v-4.1l1.3-2.3v-4.8l4.3-7v-8.5l6.5-3.3l2.8-4.3L398.7,190.1z
	 M305.2,233.9l-1-3.8l1-2l2.5,2L305.2,233.9z M350.4,205.1v-3.2l3.8-2l1.4,4L350.4,205.1z"/>
<polygon fill="none" points="305.2,228.1 307.7,230.1 305.2,233.9 304.2,230.1 "/>
<polygon fill="none" points="355.5,203.9 350.4,205.1 350.4,201.9 354.2,199.9 "/>
<rect x="174.7" y="232.1" fill="none" width="2.8" height="3.5"/>
<polygon fill="none" points="182.4,241.9 181.4,245.6 178.7,241.9 180.5,239.6 "/>
<polygon fill="none" points="254.9,230.1 251.7,232.1 248.9,230.1 251.7,228.1 "/>
<polygon fill="none" points="307.7,230.1 305.2,233.9 304.2,230.1 305.2,228.1 "/>
<polygon fill="none" points="355.5,203.9 350.4,205.1 350.4,201.9 354.2,199.9 "/>
<path fill="none" d="M238.4,411.5c0,0.1,0,0.2,0,0.2S238.4,411.6,238.4,411.5z"/>
<path fill="none" d="M247.4,654.6v10l-3.3,5v6.3l-2.7,5.3l-3.7-3.7l-5.3-8.7l-11.7-12.3l-4.3-7.7l-3,2.3l-0.7,5.3l13.7,14.3l2.7,1.7
	l6.7,10l3.3,9.3l0.3,14.3l-1.7,8.7l-4.7,3l-8-9l-11-14l-3,3.3l3,5.7l19,17.7l1.7,4.3l-4.7,7.7l-10,6.7l-3-3.8l-4.7-10.5l-21.3-15.7
	l-1.3,7.7l5.7,3.7l5,0.3l7,7.3l3,2l2,8.3l5.7,2.7l-5,8v4.7l-5.3,8.7h-5L190.4,753l-0.7-10.3l-1.7-7.7l-3.5-6l-1.5-11l-3-7.7
	l-1.7-7.3l-3.3-1.3l-1.7-4.3l-7.7-7.3l0.2,2.2l4.5,11.5l7.5,14.3v9.2l6,12.5h3.5v5.5l-10.8-8.7l-8.3-14.5l-2.5-1.7V713l-3.5-3.3
	v-5.3l-5.3-5.3v-3l-3.7-3.8v-6.5l-5-6v-4l-3.3-4.3v-7h2.7l0.3,5l3.7,3.3l2.3,5l4,4l3.3,3.3l0.3,5l4.5-3v-3.3l10.5,4.7l5.7,8l5,5.3
	v5.3l3.7,1v-10.7l-7.3-7.7l-7.3-14l-2.3-9l-8-11.3l-3-5l-1.3,4l1.3,7l5,8.7l2.3,5l-2.3,1.7l-8-1.7l-19-32l-2.3-9.7l-2.3-9h3l13.3,5
	l6,6l2.7,2.7v7.3l2.3,2.7l2-2.7l-0.3-9.7l-3.3-8l-1.3-7.7v-4.7l-4-10.3l-4.3-9.3l-3.3-7l-1.7-11.7l-3-5.3l-1.3-7h-3v9l3.7,5l-1,10
	l6.7,14l2.3,3l0.7,7.3l4.3,5.3l0.7,6.3l-4.3-0.3l-7.3-4l-10.7-6l-2.7-5.3l-4.7-28.3l-1.7-28l-2-10.3v-22l-2.3-1.7v-17.3h2l-0.3-7
	h-1.7l1.7-67.7l-1.7-21V390l2.7-27.7l3.3-11.7l-0.7-31.3l5-5.7v-40l3-7.3l0.7-9.5h3.3l-0.3-6.9l-3-1.3l-1-13l-3.3-3.5h-4l-4-4v-3
	l8.3-5.8h7l1,11.6l2,17.6l2.3,5v3.3l-2.3,5v2.5l4.9,2l1.5,5.8l1.5,3.5l8.7,13.7l1.7,5l9,5.3l22,28.7v5.7l6.7,7.7l13,14.7l6,8.3
	l8,9.3l9.7,10v5l-6,5l4.3,3.7l3.7-3.7l2,8.7l3,5c0,0-2.6,3.1-3,3.8c-0.1-0.7-1.7-3.8-1.7-3.8l-6.7-5.7l-9-4.3h-3.7l-4-4.7l-2.3-8.3
	l-7.3-4.7l-6.3,1.3l-2,6.7v6.3l0.7,6l-2.7,9.3l-4,3.7l-3.3-7.3l-4.5-3.3v-13l-1.5-12.3l3.3,1l3.7,4.7l2.3,8.7l2.7-0.3l-0.7-6.7
	l-1.3-4.7l16.3-10.7l7.3,10.3l6.7,1.3l-2.7-5.7l-27.3-31.5l-5-12.5L157.7,295l-1.3-4.7l-4.7,1.7l-2-2l-0.7-10.7l-6-9.7l-3.7,2.5
	l-1.3,3.8l-1.3,4.3l0.7,5.3l6,1.1l1.7,10.9h2l1.3,10l4.3,3.7v3.7l-4.3,2l0.3,3.7l4.3,3.7l2,9.7l3.3,17.7l2.3,9.3l-16.3,34.7l-1,8.7
	l0.7,13.3l2.7,0.7l1.3-16l3.7-8l4.7-12.7l0.7-6.3l5.7-1.3v-3.7h3l0.3,16.7l2.7,4l4,6.7l2,3.3l-9,8.7l-1,23.7v26l-4,1.7l0.7-11.3
	l-4-2.3l-2-12.3h-3l0.7,12l4,4l-0.3,27.3l-3.7,8.7l1,7.3l2.7,1l2,12.7l3.3,4.3l3,3.7l0.7-7.7l-2.3-6l6.3,0.3l7.3,6.3l2.7,9.7
	l1.8-0.3l4.8,6l3,9l1.7-5.7l-1-4l-6.7-7.7l3-11l5.3-6l5.7-5l7,11.3l10.7,13.3l6.7,3.3h4.3v-4.3l-6.7-2.3l-10-12.7l-8.3-13.7
	l-2.3-3.3L187.1,501l-5.5-4.3l-3.2,1.7l0.7,6.7l-3.3,0.3l-5-4.7l-8.7-6l-2-6l5.7-12l4-14.3v-30l8-23l3.8,0.3l9.5,15.7v4.7l4,2.7
	l2.7,6.7l14.7,14.7l1.3,7.7l19.3,37.7l1.3,5.7l4,3.3l5,14.7v6.3l-3.3,0.3l-4.7-7l-5.7-0.3v4.3l8.3,5l3.3,6l-3,23l0.7,16l-0.7,7
	l-4.7,4.7l9.7,10.3l2.7,8.3l-1.7,8.7l-1.3,8l0.7,13c0,0-3.3,3.3-3.7,2.3c-0.3-1-10-9-10-9l-6-6l1.7-9.7l-9-6.3h-7.3l-4.7-6
	l-9.3-17.7l-5.3-1.3l-6.2-8.3l-4.5-6l-1.7-8l-5.3-17l-2-4l-1.3-18l-5.7-3.3l-0.3,4l1.7,1l1.7,14l-0.7,9.7l2.7-2l1.3,6.7l1,6.3l3.7,4
	l1,10l10,11.3l5,3.3l2,5l3.3,2.7l2.3,6.7l2,2.3l1.3,5.7l7.7,5h8l2.3,7.3l-3,2.7l12.7,12.3l8.7,3.7l8.3,10L247.4,654.6z"/>
<polygon points="190.1,538.6 190.1,546 205.1,554 210.1,558.6 212.4,575.3 220.4,580.6 226.1,584.3 230.1,586 232.7,583 232.7,579 
	227.4,580 221.7,574.3 218.7,574.3 213.4,569 213.7,560.6 213.7,556.3 207.4,549 199.7,545.6 193.4,538.6 "/>
<polygon points="136.4,304 138.1,307.6 138.1,304.6 139.4,297.6 137.9,294.6 "/>
<polygon points="131.7,326 131.7,361 134.7,358.6 134.7,328.3 "/>
<polygon points="141.7,322.6 141.7,332 143.4,338 143.4,361 139.4,367.6 139.4,374 141.4,379.6 143.4,374 148.4,365.6 148.4,335.6 
	143.9,329 "/>
<polygon points="129.1,379.6 126.4,384.3 129.1,390 129.1,384.8 "/>
<polygon points="136.4,382.3 136.4,399.6 137.9,399.6 139.4,387.6 139.4,383.6 137.9,379.6 136.4,379.6 "/>
<polygon points="129.1,399.6 129.1,405.3 129.1,411.3 134.7,405.5 134.7,401.6 "/>
<polygon points="129.1,414.6 127.7,420 127.7,432.3 129.1,436.3 131.7,432 131.7,427 129.1,425.5 129.1,422.3 131.9,420.3 "/>
<polygon points="129.8,450 135.7,457.3 135.7,460.6 138.7,463.3 140.7,461.3 140.7,454.3 131.9,447.6 "/>
<polygon points="127.7,499.6 127.7,507.3 127.7,511 127.7,517.6 131.9,517.6 131.9,508.6 129.8,502 129.8,496.3 "/>
<polygon points="131.9,521 135.3,534.3 135.3,542 140.7,551 145.7,548 140.7,534 140.7,524 "/>
<polygon points="140.7,477 138.8,486.6 142.7,495 142.7,507 142.7,521 144.4,536 148.1,536 150.1,548.3 153.1,552.6 153.1,562.3 
	156.4,571 158.1,579.6 161.7,594.6 169.1,598 165.1,602 165.4,609.3 167.4,609.3 165.7,618.3 167.1,626.3 169.1,628 169.1,635.3 
	179.7,654 190.1,669.3 194.4,673.6 196.1,679.6 198.1,679.6 195.7,684.6 196.1,690 201.4,695.3 205.4,695.3 205.4,689.6 
	200.1,688.6 200.1,677.6 202.1,677.6 200.1,671.3 190.1,662 188.1,655.6 179.1,645.3 175.7,635 173.7,626 170.7,623.6 170.7,615.6 
	172.1,612.3 169.7,604 172.1,600.3 175.4,600.3 184.6,613 187.1,616 186.7,622.3 192.1,628.6 198.7,635.6 199.7,640.6 208.7,646.6 
	213.1,647 211.4,642.3 204.7,635.6 204.7,631.6 194.4,625.3 190.1,624.3 190.1,613 176,596.6 171.7,595.6 165.4,589.3 164.4,577.3 
	159.4,565 163.1,553 164.1,549.3 162.1,546.6 160.7,551 157.1,551 153.4,542.3 150.4,528.3 148.1,527.3 148.4,516.3 152.4,507 
	151.4,494.6 145.7,491.5 143.7,486.3 "/>
<path fill="none" d="M346.4,358.3l-2.3,7.7l-4,0.3l-1,5.3l-3.7,1.7l-7,7.7l-0.3,6l-5.7,2.5l-2,6.2l5.7,5.7h-7.7l-6.7,6l1.3,13.3h-5
	V413h1.7v-7.5l8-10.5c0,0-0.7-6.3,0-5.3c0.7,1,4-4.8,4-4.8l16.1-17.7l1.9-6.1L346.4,358.3z"/>
<polygon fill="none" points="379.1,694 379.1,698.3 365.1,723 363.4,731.3 338.7,761.3 337.7,767 334.1,770 332.1,772.3 
	329.4,772.3 320.7,759.3 317.4,755 317.4,752 337.1,733.6 341.7,727.6 358.7,711.6 361.1,706 370.1,695.3 "/>
<path fill="none" d="M424.7,436.3v11.3l-2,37.3l-3.3,19.7l-4.7,10l5,6.3v11.7l-0.7,7.7l-3.3,10.7l-1,29.3l-6.3,36.3l-11.7,36.7
	l-13,32.3h-7.3l-3,3.7h-7.3l-5,4.7l-2,8.7l-3.7,2.3v5.3l-12.3,9.7h-3.7l-22,25.7v4.7h-3l-5-5.7l-1.3-8.2l-2.3-3.3v-5.5l18.3-12.7
	l9.3-15.7l0.7-4l14.2-7l3.2-17.3l12.7-12.3l1.3-6.3l-4-1.7l-5.7,9l-5.3,5.7l-0.3,2.7c0,0-8,8.7-8.3,7.7c0,0,0,0,0-0.1
	c0.2,0.5,1.4,4.4,1.4,4.4l-1.3,5.3l-16,15.2l-2,8.2L311.4,720l-8,2.3l-2.3,0.3l-2-27.3l21.7-23l-0.3-5l34.7-33.3l1.7-5.3l6-9l4-10.7
	l4.3-10.7l14.3-18v-13l-4-7.7l-4.7-3.7l-0.3-7.7h-4l-1.3,8l-6.3,9l-0.7,5.3l3,0.7l6.7-12.3h2.3l3,9.3l2.3,8l-16.7,22.3l0.1,6.2
	c0,3-1,5.8-2.9,8.1l-42.9,51.7c-1.1,1.3-2,2.8-2.6,4.4l-2.4,6.3l-13,12l-4.3-0.7v-4.3l-1.7-8.3v-9.3l4-8.3l2.3-14.3l22-15.7
	l10.3-9.7l4.3-7.3l2.2-5.3l8-4.3l1.5-3.7l5.7,0.3l8.7-12V576l-5,1.3l-8.7,16c0,0-7.7,4.3-8,2.7c-0.3-1.7-6.7,8-6.7,8l-8.3,9.3l0.3,3
	l-10.3,6.3l-12,12l-5-1.7l-1.3-12.3l0.7-5l4.3-15.7l-0.3-9l15.7-6.7l11.7-15.3l4.7-0.3l1.7-6.3l9-7l-3-4.3l4.8-2.7l14.2-23.3l4-4
	l8.3-3.3l4.3,5.3v9.3l4,3.7l1-18.3l1.3-19.3h-4.7c0,0-1,13-1.3,12s-16.3,4-16.3,4l-4.3,5l-11.3,19.3l0.7,4l-4.3,3.3l-3.5,5v4
	l-15.2,13.7l-4.3,1l-5.3,11.7l-4.7,1.3l-3.3,3.5l-4.7-0.2l2.3-6.3l-1-5.7l-3.7-4.7l-0.7-4.7l4-11l-1.7-8.7l-1.7-3.3l2-4.3l-2-3.3
	l0.7-3.7l4.3,3.7l15-11l8-2l-3-3.3l5-3.7l0.3-5.3l4-3.7l5.5-8.7l5.2-4.8l5.3,6.1l8.3,11l3.7,0.7l-4.7-11.7l-6.7-6.1l-11.2-3.5
	l-9.5,15.7l-1.3,3.3l-5.3,4.3l-12.7,13.3l-7.3,3.7l-0.3-5l8.3-13l4.3-14l6.7-4.8l19.7-36l-0.3-10.8l7.7-13l0.3-2.7h-4v2l-4-2l4-3.5
	v-8.2h3v-11.8l5.3-9.5l3,6.3l2,3.2l0.3,5.8l4.7,3.3l2.7,6l3.7,4.8l1.7,10.8l0.7,6.7l3.7,4.7l-0.3,15.7l1.3,2.7v12.3l7.3,7.7
	l2.3,10.3l5,10.7l2.7,14l-3,10.3l-0.3,19.7l1,18l-3.3,4.2l0.7,6.8l5,0.3l3-12v-39.7l1.7-11h2.3l1.7,18.3l6.7,2.7l2-8.7v-4.3
	l-4.3-3.3l-3-15.3h-4l-1.3-10.7l3.7-11.3l6.7-17l2.3-8.3l2.3-7v-8l7.7-10.7L424.7,436.3z"/>
<polygon points="334.9,509.6 331.7,515.4 329.7,515.4 329.7,519.6 334.9,518.9 337.9,514.6 337.9,509.6 "/>
<polygon points="377.2,538.6 375.4,542.9 378.7,545.1 380.4,542.9 380.4,539.6 "/>
<polygon points="410.7,539.9 408.2,545.1 408.2,556.9 402.9,571.6 402.9,579.6 402.9,588.9 397.4,595.9 388.4,623.6 385.7,629.4 
	370.4,638.1 368.7,635.1 380.4,616.4 380.4,610.9 385.9,603.6 386.2,594.4 390.9,592.9 390.9,586.1 387.4,583.6 385.2,589 
	384.2,595.1 377.9,608.6 375.4,615.9 368.7,626.1 367.4,629.4 363.2,633.9 364.4,646.9 370.4,644.6 380.4,640.1 385.7,639.6 
	385.2,644.9 381.7,648.1 380.4,655.6 363.2,680.6 366.7,685.9 374.4,673.1 376.7,673.1 381.2,667.6 381.2,664.9 386.9,656.6 
	386.9,647.9 389.7,645.1 389.4,637.6 390.7,633.1 389.2,628.4 394.7,622.4 395.4,617.4 399.2,614.6 399.9,604.9 403.2,600.6 
	403.2,594.1 407.2,587.1 407.2,574.1 410.7,571.1 410.7,562.3 412.7,560.1 "/>
<polygon points="219.4,383.1 216.7,386.1 219.4,389.5 223.2,393.4 226.4,393.4 227.7,389.5 230.2,389.5 230.2,385.9 226.2,385.4 
	223.4,386.4 223.4,383.1 "/>
<polygon points="355.1,416.6 352.7,420.6 352.7,425.5 355.1,425.5 355.1,422.3 359.9,416.6 359.9,414.6 354.4,414.6 "/>
<polygon fill="none" points="176.4,381 176.4,384.8 174.4,386.3 171.1,384.8 172.4,379.6 "/>
<polygon points="189.4,396 187.1,396 188.2,402.3 190.7,402.3 "/>
<polygon fill="none" points="190.7,372 190.7,376.3 182.4,376.3 178.7,372 176.7,366 171.1,358.3 170.1,361 168.7,365 167.1,365 
	167.1,355.6 168.7,351.1 162.7,343.5 162.7,340 165.7,340 173.7,352.5 178.7,357.3 178.7,362.3 184.6,367.3 187.1,372 "/>
<polygon fill="none" points="158.4,302.6 156.9,307.6 154.7,304 154.7,297.6 156.9,297.6 "/>
<polygon fill="none" points="168.4,327.6 168.4,331.6 166.4,328.3 160.1,328.3 160.1,331.6 157.4,331.6 157.4,329.3 160.1,326 
	158.4,322.6 154.7,317.3 156.6,315 158.4,315 158.4,318 161.6,318.6 162.7,322.6 "/>
<polygon fill="none" points="166.7,333.6 166.7,337.6 162.7,337.6 161.6,335.6 164.1,331.6 "/>
<polygon fill="none" points="176.4,338.1 173.7,341.6 171.1,341.6 171.1,334.6 173.7,334.6 "/>
<path fill="none" d="M187.9,357.4l-2.5,0.3l-2.5-2.4l-9.4-5.6l-0.5-4.2l2.7-1.8c0,0,0,0,2.4,1.2l2,4l2.8,0.7l2,4.5l2.5-0.1
	L187.9,357.4z"/>
<polygon fill="none" points="423.4,343.8 424.7,378 424.7,429.6 421.4,432 418.1,430.6 416.1,433.6 414.7,441 412.1,447.6 
	408.1,457.6 403.4,470.3 399.7,482.6 397.7,484.3 397.7,493.6 394.7,491.5 392.4,483 387.7,477 387.7,463.3 381.7,455.5 
	381.7,431.6 370.1,404 370.1,399.1 384.4,379.6 387.7,368 389.7,361 387.1,357.8 381.1,361 380.1,365 380.1,368.6 379.1,372.3 
	375.4,367 373.7,367 373.4,372.6 376.1,376.3 376.4,383 373.1,383 370.1,376.3 368.7,372.3 368.7,368.6 376.7,356.3 385.1,348.3 
	388.1,343.8 392.7,343.8 394.7,338.1 402.4,307.6 403.1,297.6 405.7,290.6 410.4,290.6 413.1,302.6 415.1,301.1 416.1,294.6 
	413.4,290.6 410.4,286.8 405.7,275 408.1,266.4 410.4,264.4 406.7,264.4 399.7,276.3 396.7,278.3 396.7,283.6 393.1,287.9 
	390.4,292.3 385.7,301.1 378.1,310.3 368.7,323.3 359.9,340 350.4,351.1 344.1,356.3 342.4,351.1 350.1,346 352.7,341.6 
	359.9,331.6 365.1,326 366.4,319 368.4,315 373.1,310 374.1,304.6 378.7,302.6 378.1,299.3 386.4,292 386.4,287.9 390.4,285.6 
	390.4,277.6 397.7,269.6 398.4,266.4 403.4,258.3 403.7,251.6 409.1,245.6 411.4,235.6 413.1,232.1 414.7,232.1 415.1,245.6 
	413.4,251.3 408.7,253.3 408.4,259.3 411.7,261.9 415.4,256.9 418.4,256.9 418.7,266.4 418.4,272.1 418.7,286.8 420.4,291.3 
	420.4,315 424.7,326 "/>
<polygon fill="none" points="340.7,386.3 339,393.4 332.8,397.6 329.4,398.3 330.4,393.4 336.2,383.1 337.4,383 "/>
<polygon fill="none" points="367.2,383 362.7,388.3 363.4,390.6 364.9,394.4 364.9,396 362.2,393.4 359.9,389.5 356.2,389.5 
	355.7,391.6 353.2,393.4 352.2,390.6 353.4,388.3 357.7,386.3 359.9,383.1 358.2,381.4 353.2,376.3 348.2,376.3 346.4,381.4 
	342.4,381.4 339.9,376.3 346.4,374.4 349.4,370.9 354.7,370.9 359.9,374.9 359.9,379.6 367.2,378.4 "/>
<polygon fill="none" points="371.4,390.6 368.2,390.6 368.2,388.3 369.4,386.3 "/>
<polygon fill="none" points="402.2,280.1 402.2,283.6 400.9,286.8 397.9,287.9 397.9,294.1 395.7,297.6 396.9,300.4 395.4,307.6 
	392.4,310.4 393.4,320.6 389.7,322.6 389.7,312.4 392.2,306.6 392.2,302.6 393.9,297.6 395.4,287.9 397.2,285.6 399.7,281.9 "/>
<polygon fill="none" points="388.2,326.6 388.2,331.6 386.4,328.9 386.4,324.9 "/>
<polygon fill="none" points="388.2,336.6 388.2,340 386.4,341.6 386.4,345.1 381.7,345.1 381.7,343.7 384.4,341.6 386.4,337.6 "/>
<polygon fill="none" points="378.9,345.1 378.9,348.6 375.8,349.9 375.8,354.6 372.7,354.6 372.7,351.1 "/>
<polygon fill="none" points="200.9,331.6 197.9,332.9 196.2,331.6 196.2,327.1 198.5,328.3 "/>
<path fill="none" d="M204.2,334.6v3c0,0-2.3-1-2.5-3l-0.8-1.8L204.2,334.6z"/>
<polygon fill="none" points="198.5,286.8 197.4,289.4 196.2,289.4 196.2,285.6 "/>
<path fill="none" d="M255.9,456.6l-1.8,13.5l3.5,9.8v21.3l-1.3,1.3v14.5l-2.3,4l-0.8,5.3l-6-1.5v-7l5-5.8l0.3-17l-5.3-22.5v-5.8
	l3.5-16.3v-7.8l5.5-4.3v-8.5l-7.5-15.3l-3.5-22.5l3.8,7h1.3l2.8,4.8v9.3c0,0,2.3,3.5,3,3.5c0.8,0,0.5,3.4,0.5,3.4l4.3,12.1v5.5
	l-4.5,2.8L255.9,456.6z"/>
<polygon fill="none" points="260.9,530.6 260.9,534.9 259.9,536.1 257.9,536.1 254.9,530.6 254.9,527.4 256.2,527.4 257.9,530.6 "/>
<polygon fill="none" points="264.2,538.6 264.2,545.1 262.7,545.1 260.9,543.6 260.9,538.6 "/>
<polygon fill="none" points="283.4,550.3 281.9,553.1 279.7,553.1 279.7,547.4 281.5,547.4 "/>
<polygon fill="none" points="279.7,556.4 279.7,560.4 277.4,560.4 277.4,557.9 "/>
<polygon fill="none" points="245.4,500.1 245.4,504.9 239.7,500.9 239.7,496.1 235.9,489.4 237.9,484.6 239.7,475.9 242.2,480.1 
	243.2,487.9 241.9,487.9 240.7,492.6 "/>
<polygon fill="none" points="244.2,448.4 242.9,451.1 242.9,455.6 240.7,457.1 239.8,460.1 238.9,456.4 238.9,446.9 240.7,445.1 "/>
<polygon fill="none" points="284.9,540.9 283.4,543.1 283.4,539.9 284.4,538.6 "/>
<polygon fill="none" points="306.4,502.4 304.2,506.6 304.2,511.9 302.4,511.9 302.4,514.6 301.2,516.6 298.2,516.6 298.2,507.9 
	301.9,504.9 304.2,500.9 "/>
<polygon fill="none" points="299.4,523.4 296.2,523.4 296.2,519.6 298.2,519.6 "/>
<polygon fill="none" points="402.2,239.6 402.2,245.6 398.2,245.6 398.2,241.9 399.7,239.6 "/>
<polygon fill="none" points="406.4,213.4 404.7,217.4 403.9,210.9 405.4,209.4 "/>
<polygon fill="none" points="398.2,253.6 394.4,253.6 394.4,248.9 396.3,248.9 "/>
<rect x="200.9" y="291.4" fill="none" width="1.6" height="1.8"/>
<polygon fill="none" points="322.4,299.5 320.9,301.4 317.2,301.4 317.2,297.6 319.8,297.6 "/>
<polygon fill="none" points="329.4,317.9 327.2,317.9 325.9,316.9 325.9,311.4 327.7,311.4 "/>
<polygon fill="none" points="324.9,330 324.9,334.6 322.4,336.6 322.4,331.6 "/>
<polygon fill="none" points="394.4,263.1 390.8,264.4 389.7,261.9 391.9,258.4 "/>
<polygon fill="none" points="383.6,275.9 383.6,281.9 378.9,285.6 378.9,287.5 375.8,291.4 375.8,294.6 369.4,299.5 372.7,293.1 "/>
<rect x="364.7" y="303.6" fill="none" width="2.5" height="1.8"/>
<polygon fill="none" points="362.4,313 360.4,314.6 360.4,311.4 "/>
<polygon fill="none" points="356.9,319.9 355.5,322.6 353,323.3 353,321.1 354.2,319.9 "/>
<polygon fill="none" points="324.9,347.1 321.2,348.1 321.2,341.6 323.7,341.6 "/>
<path fill="none" d="M222.2,356.2l-3,1.6v-3.1l2.5-1.5C221.7,353.1,221.7,353.1,222.2,356.2z"/>
<polygon fill="none" points="233.4,368.1 233.4,370.9 230.2,369.4 223.4,361.1 223.4,358.3 225.9,358.3 226.2,362.9 230.2,362.9 
	230.2,366 "/>
<polygon fill="none" points="239.4,373.9 238.4,378.4 236.4,379.6 236.4,373.9 "/>
<polygon fill="none" points="243.2,381.4 243.2,384.9 241.4,386.3 241.4,381.4 "/>
<polygon fill="none" points="265.2,445.1 265.2,449.1 263,452.6 260.9,449.9 260.9,441.6 264.2,441.6 "/>
<polygon fill="none" points="298.2,445.1 297.8,451.4 296.2,452.6 296.2,445.1 "/>
<polygon fill="none" points="324.2,476.4 324.2,479.1 320.8,479.1 319.9,475.9 321.7,473.6 323.2,473.6 "/>
<polygon fill="none" points="329.7,467.3 327.2,469.1 327.2,470.6 324.2,470.6 324.2,467.1 325.7,463.9 329.4,464.9 "/>
<polygon fill="none" points="152.4,247.5 152.4,251.1 149.7,250.1 149.7,243.8 "/>
<polygon fill="none" points="156.6,261.9 153.7,261.9 155.4,259.6 "/>
<polygon fill="none" points="200.4,419.1 200.4,425.5 199.2,425.5 198.3,422.1 197.4,418.6 199.2,415.6 "/>
<polygon fill="none" points="205.7,429.6 205.7,433 203.9,436.3 200.4,434.6 203.9,429.6 "/>
<polygon fill="none" points="213.1,437.9 210.2,440.1 207.2,437.9 "/>
<rect x="214.9" y="445.1" fill="none" width="3" height="2.5"/>
<rect x="219.2" y="452.6" fill="none" width="3" height="4"/>
<polygon fill="none" points="227.4,467.9 224.7,467.9 223.4,466.6 223.4,463.3 225.4,463.3 "/>
<polygon fill="none" points="230.2,470.4 230.2,475.9 227.4,473.9 227.4,467.9 "/>
<polygon fill="none" points="233.4,478.4 233.4,485.1 232.4,483.4 232.4,477 "/>
<path d="M409.4,353.1l-5.3,11.5c0,0-2.3,8.9,0,6.3c2.3-2.6,2.3-2.6,2.3-2.6l-0.2-5.4l4.9-3.3v-4.2L409.4,353.1z"/>
<polygon points="404.4,373.9 403,378.3 403.7,386.3 407.1,392.1 405.1,393.4 407.1,400.6 411.1,406 412.7,406 412.7,400.6 
	409.1,397.6 411.1,392.1 407.9,388.5 407.1,378 "/>
<polygon points="411.1,410.3 411.1,417.3 415.7,420.1 415.7,423.3 419.1,423.3 419.1,416.8 415.1,410.3 "/>
<polygon points="402.2,397.6 399.4,399.1 399.4,422 398.1,425.5 394.4,429.6 394.4,437.9 389.7,440.1 391.1,445.1 394.1,445.1 
	398.7,434.6 398.7,429.6 402.2,425.5 402.2,402.3 "/>
<polygon fill="none" points="305.1,470.6 302.3,475.9 302.3,467.9 "/>
<polygon fill="none" points="305.1,487.8 305.1,490.4 302.3,490.4 302.3,483.6 "/>
<rect x="287.2" y="447.6" fill="none" width="3.3" height="4"/>
<polygon fill="none" points="327.7,350.9 327.7,354.6 324.9,353.1 324.9,350.9 "/>
<rect x="217.9" y="195.6" fill="none" width="1.8" height="4.3"/>
</svg>
