<?xml version="1.0" encoding="utf-8"?>
<!-- Generator: Adobe Illustrator 18.1.1, SVG Export Plug-In . SVG Version: 6.00 Build 0)  -->
<svg version="1.1" id="图层_1" xmlns="http://www.w3.org/2000/svg" xmlns:xlink="http://www.w3.org/1999/xlink" x="0px" y="0px"
	 viewBox="223.9 151.6 512.1 256.7" enable-background="new 223.9 151.6 512.1 256.7" xml:space="preserve">
<polygon points="409.5,195.4 406.2,200.6 394.6,199.3 389.4,199.9 381,201.9 369.3,208.4 355,215.4 346.6,217.4 337.5,215.4 
	332.4,213.6 328.5,213.6 317.5,216.8 310.3,224.6 299.3,231.6 285.1,237.6 276.6,240.1 270.8,240.1 276.6,229.1 283.1,220.7 
	291.5,214.2 291.5,209.7 297,199.3 299.3,192.2 299.3,186.4 294.8,183.1 294.8,176.6 304.5,173.4 316.2,176.6 326.5,176.6 
	334.9,180.4 340.1,184.4 344.7,189.6 340.1,195.4 336.2,205.2 348.6,200.6 363.5,193.4 371.2,190.3 372.5,186.4 379.7,179.9 
	387.4,181.2 392.6,186.9 398.5,183.8 405.6,188.3 "/>
<path d="M531.9,236.4l-7.3-9.9h-6l-9.5-3.5h-7.8l-6.5,8.2l-7.3,6.5l-13.8,2.4l-11.7,5.8h-5.7l-10.8,3.5l-9.5-0.9l-7.8-1.3l-1.3-7.1
	l-1.3-3.7h-6l-10.2-3.5l-10.2,2.2l0.4,5l1.3,7.6l-3.5,3.9l-6.5-2.6l-8.6-3.5l-14.3,6l-13,2.2l-1.3,2.2l-17.3,3.9l-3-3l0.9-13
	l-3.5-9.1l-8.6-0.9h-6l-4.8,2.6l1.7,3.7V258l2.6,7.3l-2.2,3.9h-15.6l-15.6,8.2h-6.9v4.3h-6.9l-2.6,3.9h-5.6l-6.5,2.2l-15.1,4.3
	l-5.2-2.2l-2.6,9.1l3,8.2l3.5,3.9h7.8l4.3,1.7l3-3.5l8.2-3.9l7.3-4.8l12.1-3.9l11.7-3.9l10.8-6.5v-2.6h5.2l7.8,1.7l-2.6,16l-1.7,9.5
	l-3.9,13.8l-13.1,13.6l-3,4.8l1.7,5.2l-6,11.7l-13.4,13.8l13-1.7l7.3-3l8.6-7.8l8.2-7.8l2.6-6l8.6-9.5l7.8-15.6l2.2-8.2v-9.1l3-7.8
	l3.5-1.3l13.4,16.4l7.8,14.7l4.8,6.9l5.2,2.2l2.6-0.4v6.9l17.3,0.4l2.2-5.6l3.5-4.3l-3-6.5l-1.7-11.2l-11.2-5.2l-5.2-5.2h-5.6
	l-9.1-6h-6.9l-5.2-4.3h-3.9l-5.6-7.3l-1.7-6l-3-4.3v-3.9l4.8,0.4l2.6,2.2l6.5-6.9l4.8,0.4l3.5-3.5l12.5-3l12.5-3l8.6,1.3l3.5,3.9
	h5.6l8.6,6l3.2,0.4v15.1l3.2,18.6v14.7l-5.2,9.5l18.1,3.5l24.6-3.9l16.4-2.6l6.5,2.6l29.4-2.6l6-3l-5.2-6.5l-1.3-3.9l6.5-9.5
	l-2.2-5.2l4.3-5.2l4.8-5.6l4.3-10.4l3.9-6.5l6.9-7.3l7.3-8.2v-8.4L531.9,236.4z M487.9,265l-2.6,3.5v9.9l-3.5,5.6v5.4l-7.8,15.8
	l-8.2,3l-15.5-0.4l-9.1,2.2l-8.6,3.9v-18.1l-2.2-8.2v-6.9l2.2-7.3l-4.3-3.9v-4.3l14.7-1.7l18.6-6l13-0.4l4.3-3.9h9.1V265H487.9z"/>
<polygon opacity="0" fill="none" points="487.9,252.9 487.9,265 485.3,268.4 485.3,278.4 481.8,284 481.8,289.4 474.1,305.1 
	465.8,308.1 450.3,307.8 441.2,309.9 432.6,313.8 432.6,295.6 430.4,287.5 430.4,280.5 432.6,273.1 428.3,269.3 428.3,265 
	442.9,263.3 461.5,257.1 474.5,256.8 478.8,252.9 "/>
<polygon fill="none" points="487.9,252.9 487.9,265 485.3,268.4 485.3,278.4 481.8,284 481.8,289.4 474.1,305.1 465.8,308.1 
	450.3,307.8 441.2,309.9 432.6,313.8 432.6,295.6 430.4,287.5 430.4,280.5 432.6,273.1 428.3,269.3 428.3,265 442.9,263.3 
	461.5,257.1 474.5,256.8 478.8,252.9 "/>
<polygon points="685,191.1 624.3,222.4 613.3,230.4 605.7,222.4 605.7,211.8 609.7,205.1 621,184.4 631.7,191.8 635.7,199.1 
	656.3,193.1 673,189.1 "/>
<path d="M723.7,201.3v4l-2.5,5c0,0-32.8,7.5-36.2,17c0,0-4.7,0.8,0,3.2c0,0,11.2,52.8,6.2,66.3c0,0-5.5,47-12,54
	c0,0-15,22.5-19.5,23s-46-30.5-46-30.5v-4.5l41-3l7-8.5l7-42.5l-4-38l-14-16.3v-4.2l10-3.5l8-2l7.5-6.5l5-6.8l3.8-5.2l3.7-9l1.7-3.2
	l-4-1l-1.3-2.3l8.2-2.3l4-9.2l6-4h6l4.5,7.8v5.4l6,2.3L723.7,201.3z"/>
</svg>
