<?xml version="1.0" encoding="utf-8"?>
<!-- Generator: Adobe Illustrator 18.1.1, SVG Export Plug-In . SVG Version: 6.00 Build 0)  -->
<svg version="1.1" id="图层_1" xmlns="http://www.w3.org/2000/svg" xmlns:xlink="http://www.w3.org/1999/xlink" x="0px" y="0px"
	 viewBox="365.7 80.8 228.7 398.4" enable-background="new 365.7 80.8 228.7 398.4" xml:space="preserve">
<path d="M569.8,137.6l-11.3-11.3l11.3-6l0.7-6l-17.3-8.7l-32.7-12.7l-16.7-4l-14-3.3l-20.7,3.3l-56.7,15.3l-16.7,10.7l12.7,2.7
	l-2.7-3.3l48-18.7l-6.7,7.3l-41.3,20l-16.7,22l-4.7,15.3l-3.3,84v60l3.3,40.7v19.3l0.7,12.7l2,6.7l4,12.7l12.7,31.3l9.3,14l4.3,11.3
	l21,19.3h6l6-8l8.7-11.3l16.7,12l5.4,0.7l4.6,1.3l5.3-2l12-16.7l3.3,1.3l8.7,16l10.7,11.3h4l16-16l6-9.3l8.7-17.3l4.7-11.3l5.3-13.3
	l3.3-12.7l3.3-13.3v-46l2.7-19.3v-160L569.8,137.6z M417,125.6l12-5l12-6l5.5-3.5l6-4l4-4.5l4-3l4.5-4.5l6.5-2.5l2.5,3.5l-7.5,9.5
	l-8,9l-11.5,6c0,0-25.5,13-41,10.5L417,125.6z M476,362.1l-3,3.5l-1,11v9.5l1,9l-1.5,10.5v13l-2,14l6.5-11v30l-4.5-6v5.5l-3-4
	l-4.1-6v-4c-4,6.9-19.4,24-19.9,24.5c14-26.5,25-67,17.5-43s-29,40-29,40l-38.5-71l-3.5-18.5l-2.5-22v-20.5l1.3,6v-41l-1.3,11.5
	v-14.5l2.5-28.5v-87l26,20.5l19,19l20.5,28l15,33.5l2,14.5v19.5l2.5,23V362.1z M492.5,454.1l-5.3,7.5l-3-4l3-93.5V258.6l-3-0.5
	l-15.3-22l-17.5-16h-4v-6.5c0,0,39.5,10,52.5,3.3l5.5-3.3h4.5l17-13.5l-15,30l-9.5,31.5l-3,17.5l-4.4,18.5l-1.5,17.5v16.5l0.5,21
	v21.5l0.5,15l3.5,29l2.5,15l2,9.5L492.5,454.1z M577.5,303.6l-2.3,17.3v33.7l-1.7,24l-5.5,33l-19.5,38.5c0,0-13.5,15.5-19,15.5
	S515,438.1,515,438.1l-4-19.5l-1.5-23.5l-1,5.5l-3-6.5l-1.5-16.5l-0.3-8l-1.2-36.5l-1-27.5c4.7-99.1,66.5-134.5,66.5-134.5v-4
	l-35,25.5c0,0-14,7.5-23,15.5s-46.5,3-46.5,3l-23.5-9.5l-40.5-36l33-3c8-7,48-5,48-5l26.5-1l28,2l18.5,4h7.5c0-3.5-30.5-8-56-10.5
	s-87.5,4-87.5,4l9,1.5l-35.5,5v-5l5.5-2.5h3l40.5-9l12.5-3.5l21.5-7l3.5-4.2l6.5-11.1l4,6.8v-4.5l-1.5-10.6l-1-10.9l-1.5,5l-10,21
	l-4.5,4.3l-20,8.7l14.5-8.7l-13.5,5.2l-10.5,3.5l-34,4.5h19l-19,3.5h-9.5v-3.5l4.5-3.5l17.5-3l38-12.5l11-8V112c0,0,5.5-1.9,9-11.4
	s14-8,14-8h18l24,9.5l12.5,4l20.5,11l-12,2.5l-5-5L541,112l-10.5-6.4l-10-4l-12-4.5l-1,1.8l18.7,10l4.3,0.3l1.3,2.7l11,6.3l7,3v3
	l14.7,13.7h-7l-13-5l-24-11l-5-3.7l-5-3.3l-12-14l-7.7-6.3c16.7,26,29.7,31.3,29.7,31.3l46.7,18.7l4,7.3l-65.3-18l19.7,8.3l-22-6.3
	l-10-4.5l13,8.8l65.7,18.7l4,11.3l1.3,38.3v95.1H577.5z"/>
<path fill="none" d="M474,96.1l-7.5,9.5l-8,9l-11.5,6c0,0-25.5,13-41,10.5l11-5.5l12-5l12-6l5.5-3.5l6-4l4-4.5l4-3l4.5-4.5l6.5-2.5
	L474,96.1z"/>
<path fill="none" d="M472,376.6v9.5l1,9l-1.5,10.5v13l-2,14l6.5-11v30l-4.5-6v5.5l-3-4l-4.1-6v-4c-4,6.9-19.4,24-19.9,24.5
	c14-26.5,25-67,17.5-43s-29,40-29,40l-38.5-71l-3.5-18.5l-2.5-22v-20.5l1.3,6v-41l-1.3,11.5v-14.5l2.5-28.5v-87l26,20.5l19,19
	l20.5,28l15,33.5l2,14.5v19.5l2.5,23v31l-3,3.5L472,376.6z"/>
<path fill="none" d="M527,200.1l-15,30l-9.5,31.5l-3,17.5l-4.5,18.5l-1.5,17.5v16.5l0.5,21v21.5l0.5,15l3.5,29l2.5,15l2,9.5
	l-10,11.5l-5.3,7.5l-3-4l3-93.5V258.6l-3-0.5l-15.3-22l-17.5-16h-4v-6.5c0,0,39.5,10,52.5,3.3l5.5-3.3h4.5L527,200.1z"/>
<path fill="none" d="M577.5,208.6v95l-2.3,17.3v33.7l-1.7,24l-5.5,33l-19.5,38.5c0,0-13.5,15.5-19,15.5S515,438.1,515,438.1l-4-19.5
	l-1.5-23.5l-1,5.5l-3-6.5l-1.5-16.5l-0.3-8l-1.2-36.5l-1-27.5c4.7-99.1,66.5-134.5,66.5-134.5v-4l-35,25.5c0,0-14,7.5-23,15.5
	s-46.5,3-46.5,3l-23.5-9.5l-40.5-36l33-3c8-7,48-5,48-5l26.5-1l28,2l18.5,4h7.5c0-3.5-30.5-8-56-10.5s-87.5,4-87.5,4l9,1.5l-35.5,5
	v-5l5.5-2.5h3l40.5-9l12.5-3.5l21.5-7l3.5-4.2l6.5-11.1l4,6.8v-4.5l-1.5-10.6l-1-10.9l-1.5,5l-10,21l-4.5,4.3l-20,8.7l14.5-8.7
	l-13.5,5.2l-10.5,3.5l-34,4.5h19l-19,3.5h-9.5v-3.5l4.5-3.5l17.5-3l38-12.5l11-8V112c0,0,5.5-1.9,9-11.4s14-8,14-8h18l24,9.5l12.5,4
	l20.5,11l-12,2.5l-5-5L541,112l-10.5-6.4l-10-4l-12-4.5l-1,1.8l18.7,10l4.3,0.3l1.3,2.7l11,6.3l7,3v3l14.7,13.7h-7l-13-5l-24-11
	l-5-3.7l-5-3.3l-12-14l-7.7-6.3c16.7,26,29.7,31.3,29.7,31.3l46.7,18.7l4,7.3l-65.3-18l19.7,8.3l-22-6.3l-10-4.5l13,8.8l65.7,18.7
	l4,11.3L577.5,208.6z"/>
<path fill="none" d="M474,96.1l-7.5,9.5l-8,9l-11.5,6c0,0-25.5,13-41,10.5l11-5.5l12-5l12-6l5.5-3.5l6-4l4-4.5l4-3l4.5-4.5l6.5-2.5
	L474,96.1z"/>
<path fill="none" d="M577.5,208.6v95l-2.3,17.3v33.7l-1.7,24l-5.5,33l-19.5,38.5c0,0-13.5,15.5-19,15.5S515,438.1,515,438.1l-4-19.5
	l-1.5-23.5l-1,5.5l-3-6.5l-1.5-16.5l-0.3-8l-1.2-36.5l-1-27.5c4.7-99.1,66.5-134.5,66.5-134.5v-4l-35,25.5c0,0-14,7.5-23,15.5
	s-46.5,3-46.5,3l-23.5-9.5l-40.5-36l33-3c8-7,48-5,48-5l26.5-1l28,2l18.5,4h7.5c0-3.5-30.5-8-56-10.5s-87.5,4-87.5,4l9,1.5l-35.5,5
	v-5l5.5-2.5h3l40.5-9l12.5-3.5l21.5-7l3.5-4.2l6.5-11.1l4,6.8v-4.5l-1.5-10.6l-1-10.9l-1.5,5l-10,21l-4.5,4.3l-20,8.7l14.5-8.7
	l-13.5,5.2l-10.5,3.5l-34,4.5h19l-19,3.5h-9.5v-3.5l4.5-3.5l17.5-3l38-12.5l11-8V112c0,0,5.5-1.9,9-11.4s14-8,14-8h18l24,9.5l12.5,4
	l20.5,11l-12,2.5l-5-5L541,112l-10.5-6.4l-10-4l-12-4.5l-1,1.8l18.7,10l4.3,0.3l1.3,2.7l11,6.3l7,3v3l14.7,13.7h-7l-13-5l-24-11
	l-5-3.7l-5-3.3l-12-14l-7.7-6.3c16.7,26,29.7,31.3,29.7,31.3l46.7,18.7l4,7.3l-65.3-18l19.7,8.3l-22-6.3l-10-4.5l13,8.8l65.7,18.7
	l4,11.3L577.5,208.6z"/>
<path fill="none" d="M472,376.6v9.5l1,9l-1.5,10.5v13l-2,14l6.5-11v30l-4.5-6v5.5l-3-4l-4.1-6v-4c-4,6.9-19.4,24-19.9,24.5
	c14-26.5,25-67,17.5-43s-29,40-29,40l-38.5-71l-3.5-18.5l-2.5-22v-20.5l1.3,6v-41l-1.3,11.5v-14.5l2.5-28.5v-87l26,20.5l19,19
	l20.5,28l15,33.5l2,14.5v19.5l2.5,23v31l-3,3.5L472,376.6z"/>
<path fill="none" d="M527,200.1l-15,30l-9.5,31.5l-3,17.5l-4.5,18.5l-1.5,17.5v16.5l0.5,21v21.5l0.5,15l3.5,29l2.5,15l2,9.5
	l-10,11.5l-5.3,7.5l-3-4l3-93.5V258.6l-3-0.5l-15.3-22l-17.5-16h-4v-6.5c0,0,39.5,10,52.5,3.3l5.5-3.3h4.5L527,200.1z"/>
</svg>
